<svg width="38" height="38" viewBox="0 0 38 38" fill="none" xmlns="http://www.w3.org/2000/svg">
<path fill-rule="evenodd" clip-rule="evenodd" d="M19 38C29.4934 38 38 29.4934 38 19C38 8.50659 29.4934 0 19 0C8.50659 0 0 8.50659 0 19C0 29.4934 8.50659 38 19 38Z" fill="white"/>
<path fill-rule="evenodd" clip-rule="evenodd" d="M19 21.1923L29.9615 11.6923H8.03845L19 21.1923ZM16.0393 20.1407L19 22.5709L21.9143 20.1407L29.9615 27.0385H8.03845L16.0393 20.1407ZM7.30768 26.3077V12.4231L15.3461 19.3654L7.30768 26.3077ZM30.6923 26.3077V12.4231L22.6538 19.3654L30.6923 26.3077Z" fill="black"/>
</svg>
