<svg width="39" height="39" viewBox="0 0 39 39" fill="none" xmlns="http://www.w3.org/2000/svg">
<path d="M19.0752 0.0231934C8.59864 0.0231934 0.0751953 8.54664 0.0751953 19.0232C0.0751953 29.4998 8.59864 38.0232 19.0752 38.0232C29.5518 38.0232 38.0752 29.4998 38.0752 19.0232C38.0752 8.54664 29.5518 0.0231934 19.0752 0.0231934ZM23.8003 19.6921H20.7092C20.7092 24.6307 20.7092 30.7113 20.7092 30.7113H16.1287C16.1287 30.7113 16.1287 24.6897 16.1287 19.6921H13.9513V15.7981H16.1287V13.2794C16.1287 11.4755 16.9859 8.65684 20.7513 8.65684L24.144 8.66985V12.4498C24.144 12.4498 22.0814 12.4498 21.6804 12.4498C21.2793 12.4498 20.7099 12.6503 20.7099 13.5105V15.7989H24.1998L23.8003 19.6921Z" fill="white"/>
</svg>
