<svg width="243" height="38" viewBox="0 0 243 38" fill="none" xmlns="http://www.w3.org/2000/svg">
<path d="M239.979 7.15865C241.253 7.92051 241.761 9.06052 241.728 10.515C241.611 15.859 242.221 21.1865 242.042 26.5278C241.967 28.7898 241.858 32.8388 238.973 33.3056C237.686 33.5133 236.682 32.9496 235.896 32.0256C234.077 29.8883 232.564 27.5238 230.932 25.2479C229.712 23.5441 228.539 21.8057 227.345 20.0839C227.229 19.9163 227.135 19.6766 226.869 19.7681C226.636 19.8484 226.7 20.0756 226.697 20.2612C226.651 23.6494 226.503 27.0362 226.55 30.4271C226.571 31.9259 225.804 32.8872 224.399 33.2903C223.099 33.6643 221.692 33.1767 221.009 32.1184C220.688 31.6198 220.592 31.0629 220.573 30.4853C220.451 26.8686 220.426 23.2477 220.46 19.6295C220.478 17.7983 220.51 15.9657 220.553 14.1345C220.592 12.4875 220.474 10.7449 220.855 9.13948C221.042 8.35407 221.455 7.59222 222.129 7.15034C223.239 6.42589 224.727 6.61843 225.73 7.42045C226.115 7.72797 226.468 8.08396 226.802 8.44965C229.939 11.8932 232.145 15.9242 234.641 19.8207C234.727 19.9551 234.788 20.1961 234.991 20.1407C235.232 20.0756 235.128 19.8249 235.148 19.6476C235.156 19.5728 235.148 19.4952 235.149 19.419C235.16 16.4464 235.169 13.4751 235.185 10.5025C235.195 8.64081 235.951 7.5091 237.462 6.99658C238.333 6.70154 239.153 6.88023 239.977 7.15727L239.979 7.15865Z" fill="white"/>
<path d="M218.866 25.5887C218.146 27.1332 217.256 28.553 216.002 29.7443C213.091 32.5105 209.654 33.5258 205.668 33.1809C200.465 32.7307 197.058 29.862 194.668 25.4834C194.436 25.0554 194.199 24.6288 193.965 24.2021C194.034 23.8032 193.808 23.4666 193.736 23.0967C192.825 18.4203 193.941 14.298 197.228 10.8308C201.169 6.67388 207.416 5.45076 212.619 7.86238C215.702 9.29051 218.311 11.8143 219.423 15.0737C220.567 18.43 220.365 22.3723 218.865 25.5901L218.866 25.5887ZM212.271 15.1485C211.108 13.4724 209.453 12.1302 207.409 11.8628C204.91 11.5359 202.344 12.7299 200.845 14.726C200.675 14.9518 200.52 15.1887 200.379 15.4325C199.445 17.049 199.1 18.9744 199.283 20.8333C199.485 22.8876 200.344 24.9044 201.826 26.3409C203.308 27.7787 205.43 28.5863 207.476 28.3161C208.989 28.1167 210.392 27.3534 211.512 26.3187C212.623 25.2909 213.484 23.9736 213.872 22.5094C214.313 20.8458 214.123 19.0478 213.494 17.4451C213.185 16.657 212.775 15.8716 212.273 15.1485H212.271Z" fill="white"/>
<path d="M190.955 25.6926C191.212 25.8561 191.476 26.0057 191.721 26.183C193.043 27.1429 193.105 28.8827 191.865 29.9562C189.856 31.696 187.471 32.6366 184.881 32.9953C180.884 33.5467 177.132 32.7516 173.71 30.592C171.797 29.3855 170.356 27.7316 169.296 25.7425C169.065 25.3089 168.841 24.8698 168.613 24.4349C168.651 24.2146 168.536 24.0262 168.476 23.8281C167.123 19.3193 167.993 15.2233 171.243 11.8767C175.625 7.36651 181.675 6.03395 187.672 7.62692C188.526 7.8541 189.368 8.13113 190.176 8.49405C192.13 9.37226 196.328 12.32 193.394 14.5376C192.905 14.9075 192.331 15.0294 191.763 15.1818C190.658 15.1277 189.695 14.6983 188.809 14.0695C187.097 12.8546 185.195 12.1399 183.089 12.2299C180.818 12.3283 178.53 12.9447 176.771 14.4435C174.772 16.1472 173.479 18.7888 174.022 21.4359C174.598 24.2548 176.994 26.1428 179.639 26.9337C182.323 27.7358 184.946 27.2745 187.461 26.194C188.602 25.7051 189.728 25.4239 190.957 25.6926H190.955Z" fill="white"/>
<path d="M49.89 18.3275C49.4122 16.3107 48.6311 14.4046 47.7821 12.5208C47.6838 12.3116 47.6312 12.0346 47.3542 11.9487C47.3819 11.8434 47.3597 11.7672 47.2406 11.7423C46.8473 11.1079 46.6617 11.0317 46.3819 11.4472C45.4582 12.8117 44.8488 14.316 44.479 15.9173C44.1065 16.7484 44.0234 17.6598 43.7713 18.5256C43.6508 18.9467 43.8046 19.0672 44.227 19.027C45.9692 18.8608 47.717 18.8552 49.4635 18.8788C49.8969 18.8843 49.987 18.7375 49.8914 18.3275H49.89ZM49.89 18.3275C49.4122 16.3107 48.6311 14.4046 47.7821 12.5208C47.6838 12.3116 47.6312 12.0346 47.3542 11.9487C47.3819 11.8434 47.3597 11.7672 47.2406 11.7423C46.8473 11.1079 46.6617 11.0317 46.3819 11.4472C45.4582 12.8117 44.8488 14.316 44.479 15.9173C44.1065 16.7484 44.0234 17.6598 43.7713 18.5256C43.6508 18.9467 43.8046 19.0672 44.227 19.027C45.9692 18.8608 47.717 18.8552 49.4635 18.8788C49.8969 18.8843 49.987 18.7375 49.8914 18.3275H49.89ZM49.89 18.3275C49.4122 16.3107 48.6311 14.4046 47.7821 12.5208C47.6838 12.3116 47.6312 12.0346 47.3542 11.9487C47.3819 11.8434 47.3597 11.7672 47.2406 11.7423C46.8473 11.1079 46.6617 11.0317 46.3819 11.4472C45.4582 12.8117 44.8488 14.316 44.479 15.9173C44.1065 16.7484 44.0234 17.6598 43.7713 18.5256C43.6508 18.9467 43.8046 19.0672 44.227 19.027C45.9692 18.8608 47.717 18.8552 49.4635 18.8788C49.8969 18.8843 49.987 18.7375 49.8914 18.3275H49.89ZM68.7904 12.6607C68.483 12.3462 68.0675 12.2202 67.6797 12.054C66.3903 11.5123 65.0206 11.3267 63.644 11.1577C62.8338 11.0594 62.6953 11.1356 62.7202 11.9611C62.7576 13.2383 62.8365 14.5141 62.8988 15.7884C62.8933 16.6569 62.8989 17.5282 62.8712 18.3995C62.8587 18.8054 63.0526 18.9051 63.4044 18.8705C63.9653 18.8151 64.5303 18.7846 65.0885 18.707C66.7809 18.4757 68.3362 17.9216 69.6505 16.783C71.1158 15.5142 70.7432 13.4918 68.7918 12.6607H68.7904ZM68.7904 12.6607C68.483 12.3462 68.0675 12.2202 67.6797 12.054C66.3903 11.5123 65.0206 11.3267 63.644 11.1577C62.8338 11.0594 62.6953 11.1356 62.7202 11.9611C62.7576 13.2383 62.8365 14.5141 62.8988 15.7884C62.8933 16.6569 62.8989 17.5282 62.8712 18.3995C62.8587 18.8054 63.0526 18.9051 63.4044 18.8705C63.9653 18.8151 64.5303 18.7846 65.0885 18.707C66.7809 18.4757 68.3362 17.9216 69.6505 16.783C71.1158 15.5142 70.7432 13.4918 68.7918 12.6607H68.7904ZM49.89 18.3275C49.4122 16.3107 48.6311 14.4046 47.7821 12.5208C47.6838 12.3116 47.6312 12.0346 47.3542 11.9487C47.3819 11.8434 47.3597 11.7672 47.2406 11.7423C46.8473 11.1079 46.6617 11.0317 46.3819 11.4472C45.4582 12.8117 44.8488 14.316 44.479 15.9173C44.1065 16.7484 44.0234 17.6598 43.7713 18.5256C43.6508 18.9467 43.8046 19.0672 44.227 19.027C45.9692 18.8608 47.717 18.8552 49.4635 18.8788C49.8969 18.8843 49.987 18.7375 49.8914 18.3275H49.89ZM49.89 18.3275C49.4122 16.3107 48.6311 14.4046 47.7821 12.5208C47.6838 12.3116 47.6312 12.0346 47.3542 11.9487C47.3819 11.8434 47.3597 11.7672 47.2406 11.7423C46.8473 11.1079 46.6617 11.0317 46.3819 11.4472C45.4582 12.8117 44.8488 14.316 44.479 15.9173C44.1065 16.7484 44.0234 17.6598 43.7713 18.5256C43.6508 18.9467 43.8046 19.0672 44.227 19.027C45.9692 18.8608 47.717 18.8552 49.4635 18.8788C49.8969 18.8843 49.987 18.7375 49.8914 18.3275H49.89ZM68.7904 12.6607C68.483 12.3462 68.0675 12.2202 67.6797 12.054C66.3903 11.5123 65.0206 11.3267 63.644 11.1577C62.8338 11.0594 62.6953 11.1356 62.7202 11.9611C62.7576 13.2383 62.8365 14.5141 62.8988 15.7884C62.8933 16.6569 62.8989 17.5282 62.8712 18.3995C62.8587 18.8054 63.0526 18.9051 63.4044 18.8705C63.9653 18.8151 64.5303 18.7846 65.0885 18.707C66.7809 18.4757 68.3362 17.9216 69.6505 16.783C71.1158 15.5142 70.7432 13.4918 68.7918 12.6607H68.7904ZM126.439 13.1192C126.402 13.1039 126.341 13.1413 126.291 13.1524C126.263 12.9155 126.069 12.8297 125.9 12.7147C124.195 11.5844 122.323 10.95 120.286 10.7934C119.556 10.738 119.553 10.7408 119.553 11.4736C119.556 13.2009 119.563 14.9255 119.565 16.6514C119.507 17.5047 119.633 18.351 119.661 19.2002C119.671 19.5201 119.849 19.6407 120.157 19.6504C121.798 19.703 123.398 19.5021 124.931 18.8926C125.931 18.4923 126.817 17.9355 127.486 17.0725C128.43 15.8466 127.864 13.6885 126.439 13.1164V13.1192ZM126.439 13.1192C126.402 13.1039 126.341 13.1413 126.291 13.1524C126.263 12.9155 126.069 12.8297 125.9 12.7147C124.195 11.5844 122.323 10.95 120.286 10.7934C119.556 10.738 119.553 10.7408 119.553 11.4736C119.556 13.2009 119.563 14.9255 119.565 16.6514C119.507 17.5047 119.633 18.351 119.661 19.2002C119.671 19.5201 119.849 19.6407 120.157 19.6504C121.798 19.703 123.398 19.5021 124.931 18.8926C125.931 18.4923 126.817 17.9355 127.486 17.0725C128.43 15.8466 127.864 13.6885 126.439 13.1164V13.1192ZM68.7904 12.6607C68.483 12.3462 68.0675 12.2202 67.6797 12.054C66.3903 11.5123 65.0206 11.3267 63.644 11.1577C62.8338 11.0594 62.6953 11.1356 62.7202 11.9611C62.7576 13.2383 62.8365 14.5141 62.8988 15.7884C62.8933 16.6569 62.8989 17.5282 62.8712 18.3995C62.8587 18.8054 63.0526 18.9051 63.4044 18.8705C63.9653 18.8151 64.5303 18.7846 65.0885 18.707C66.7809 18.4757 68.3362 17.9216 69.6505 16.783C71.1158 15.5142 70.7432 13.4918 68.7918 12.6607H68.7904ZM49.89 18.3275C49.4122 16.3107 48.6311 14.4046 47.7821 12.5208C47.6838 12.3116 47.6312 12.0346 47.3542 11.9487C47.3819 11.8434 47.3597 11.7672 47.2406 11.7423C46.8473 11.1079 46.6617 11.0317 46.3819 11.4472C45.4582 12.8117 44.8488 14.316 44.479 15.9173C44.1065 16.7484 44.0234 17.6598 43.7713 18.5256C43.6508 18.9467 43.8046 19.0672 44.227 19.027C45.9692 18.8608 47.717 18.8552 49.4635 18.8788C49.8969 18.8843 49.987 18.7375 49.8914 18.3275H49.89ZM147.082 0H18.9973C13.7484 0 9.00217 2.12766 5.56472 5.56571C2.1259 9.00099 0 13.7522 0 18.9979C0 29.4935 8.50497 38 18.9987 38H147.083C152.328 38 157.078 35.8723 160.513 32.4343C163.952 28.9949 166.078 24.2478 166.078 18.9993C166.078 8.50647 157.573 0 147.082 0ZM33.6183 30.3593C32.61 30.1543 31.822 29.4672 31.045 28.8397C30.1864 28.1457 29.3471 27.4254 28.53 26.6816C26.8971 25.1939 25.3515 23.6078 23.9056 21.9373C23.6314 21.6201 23.2768 21.2724 22.8461 21.4927C22.0802 21.8861 21.5734 22.1451 21.5 23.0607C21.3808 24.5498 21.2493 26.0402 21.1149 27.5293C21.0582 28.1541 20.9944 28.8023 20.6718 29.3398C20.1524 30.2014 19.0541 30.5795 18.0514 30.495C17.4587 30.4452 16.8618 30.2485 16.4255 29.8426C16.0308 29.4769 15.794 28.9658 15.6707 28.4408C15.5474 27.9158 15.5308 27.3742 15.5156 26.8353C15.4159 23.2006 15.5405 19.5728 15.5017 15.9394C15.481 13.9669 15.4159 11.9861 15.6513 10.0274C15.7552 9.1686 15.9228 8.29454 16.3244 7.52021C16.7219 6.7542 17.4019 6.32895 18.2412 6.14195C19.5001 5.86214 20.8781 6.52149 21.4072 7.70167C21.6509 8.24606 21.7077 8.85277 21.7603 9.44702C21.9154 11.2284 22.0484 13.025 21.8462 14.8022C21.8019 15.1942 21.9293 15.4615 22.2686 15.1125C23.7713 13.561 25.3363 12.0775 26.94 10.6327C27.7502 9.90275 28.5687 9.18106 29.3872 8.45938C30.1143 7.81942 30.8054 7.13098 31.7043 6.73204C32.3967 6.42591 33.1931 6.3054 33.9202 6.5201C34.6473 6.73481 35.283 7.31798 35.4464 8.05906C35.5807 8.66854 35.3896 9.31266 35.0614 9.84319C34.6777 10.4624 34.1113 10.9555 33.6293 11.4916C33.067 12.1163 32.4563 12.7008 31.8705 13.3034C30.455 14.7592 29.0299 16.2123 27.6103 17.6654C27.3943 17.8371 27.1852 18.0103 26.9705 18.1765C26.7184 18.376 26.7267 18.5547 26.983 18.7486C27.2821 18.9758 27.5674 19.2223 27.8569 19.4634C30.1559 21.3777 32.5297 23.2131 34.5489 25.4391C34.6376 25.5374 34.7151 25.6607 34.8661 25.6856C35.1888 26.0763 35.5184 26.4641 35.8356 26.8644C36.1624 27.2675 36.4172 27.708 36.4546 28.2441C36.5433 29.6417 35.1583 30.6737 33.6196 30.3593H33.6183ZM54.5351 30.2762C52.9341 31.1017 51.1309 30.0421 51.0728 28.2441C51.0728 28.161 51.0672 28.0751 51.0603 27.9892C51.1309 26.9143 50.944 25.8463 50.9398 24.7714C50.9398 23.8295 50.8692 23.7741 49.9053 23.7741C49.7515 23.7741 49.5978 23.7713 49.4441 23.7685C47.976 23.7076 46.5038 23.8974 45.0358 23.7381C44.5774 23.6854 44.112 23.6854 43.6536 23.6397C43.263 23.5968 43.0747 23.7658 43.0442 24.1411C42.9791 24.939 42.8836 25.7355 42.8531 26.5361C42.8199 27.3465 42.6689 28.125 42.4251 28.891C42.126 29.8301 41.2895 30.4646 40.3325 30.5075C39.2245 30.5574 38.3659 30.0393 37.9559 29.0724C37.7897 28.679 37.6969 28.2663 37.6388 27.841C37.6263 27.7759 37.6083 27.708 37.6055 27.6415C37.4975 24.9875 37.6305 22.3556 38.1623 19.7445C38.7038 17.1002 39.3104 14.4794 40.471 12.0193C41.1759 10.5316 42.1399 9.24201 43.3918 8.16433C44.7699 6.9786 46.6645 6.56028 48.4206 7.02016C50.3429 7.52299 51.7029 8.9622 52.7236 10.6009C54.1529 12.8948 54.7678 15.7039 55.0988 18.358C55.4991 21.5785 55.8287 24.795 55.7982 28.0432C55.7885 29.0226 55.4437 29.8038 54.5365 30.2748L54.5351 30.2762ZM73.7015 19.2348C72.9674 19.9953 72.0949 20.6352 71.2155 21.1325C70.023 21.8071 68.7267 22.2808 67.4069 22.6368C66.0676 22.9984 64.6716 23.31 63.2756 23.2477C62.8628 23.2297 62.6842 23.4319 62.6966 23.8392C62.7396 25.3102 62.608 26.7702 62.4875 28.233C62.3795 29.5531 61.6662 30.3177 60.3575 30.4008C58.9628 30.4867 58.046 29.7969 57.8272 28.4948C57.7898 28.2759 57.7662 28.0571 57.7344 27.8355C57.7094 27.4975 57.6665 27.1581 57.6568 26.816C57.5862 23.6605 57.5211 20.505 57.4532 17.3482C57.4158 15.5197 57.607 13.6996 57.6319 11.8739C57.6471 10.7782 57.697 9.69081 57.9366 8.62283C58.0931 7.92607 58.5058 7.30413 59.1512 6.97722C59.5625 6.76806 59.924 6.79714 60.3755 6.75559C60.8865 6.70988 61.392 6.61291 61.9017 6.54781C65.8765 6.03944 70.1227 7.37338 73.1253 10.0094C73.3455 10.2033 73.5602 10.4028 73.7707 10.6078C73.8316 10.6674 73.8926 10.7283 73.948 10.7948C74.0006 10.8585 74.0463 10.9264 74.0934 10.9929C74.9701 12.277 75.6778 13.5749 75.6141 15.1803C75.5531 16.7456 74.7748 18.1197 73.6987 19.2334L73.7015 19.2348ZM93.3165 11.9113C91.7778 12.1634 90.2267 12.2465 88.6686 12.2257C88.278 12.2202 88.1479 12.4044 88.1977 12.7673C88.4872 14.8673 88.5675 16.9797 88.4719 19.0907C88.3764 21.2059 88.447 23.3239 88.3667 25.4363C88.3168 26.6553 88.321 27.8867 88.0869 29.0974C87.8432 30.3468 86.7269 31.1447 85.2644 31.117C83.9625 31.0948 82.8476 30.1931 82.6565 29.0115C82.6288 28.8273 82.5887 28.6458 82.5554 28.4602C82.4045 26.1663 82.3671 23.8696 82.3712 21.5702C82.3712 21.0258 82.374 20.4773 82.3338 19.9357C82.1552 17.4825 82.284 15.0377 82.5125 12.5956C82.5457 12.2507 82.4516 12.1177 82.1247 12.1066C81.6469 12.0886 81.1705 12.0664 80.6927 12.0456C79.1845 12.0304 77.6943 11.8947 76.2844 11.3073C76.0808 11.2214 75.8744 11.1286 75.6875 11.0151C74.6529 10.3931 74.2776 9.22262 75.3855 8.28484C76.0046 7.92192 76.6597 7.64765 77.3522 7.44403C79.0889 6.94259 80.8769 7.05064 82.6441 6.98553C84.9126 6.90242 87.1881 6.93289 89.4594 6.93012C90.8762 6.92874 92.4343 6.7639 93.7694 7.33737C93.8165 7.35815 93.8649 7.37893 93.9065 7.4094C93.9453 7.4371 93.9799 7.47035 94.0145 7.50359C94.1572 7.6338 94.3233 7.7363 94.4729 7.8582C95.4992 8.69763 95.4521 10.1549 94.5754 11.0746C94.2126 11.4569 93.732 11.6315 93.3165 11.9154V11.9113ZM112.396 22.411C112.328 23.328 112.211 24.2395 112.011 25.1357C111.278 28.4048 109.17 30.2859 105.946 30.9826C103.615 31.4882 101.396 31.189 99.3313 29.9423C97.8356 29.0378 96.9174 27.6637 96.2069 26.122C96.1639 26.0292 96.1113 25.9433 96.0656 25.8546C96.0684 25.6482 96.013 25.4543 95.9451 25.2576C95.3662 23.5372 95.1294 21.7475 95.0214 19.9468C94.905 18.0103 94.8732 16.071 94.9812 14.1276C95.0864 12.2687 95.4826 10.4984 96.2374 8.79875C96.7512 7.63796 97.5821 6.98276 98.9006 7.04094C100.557 7.46619 100.744 8.58958 100.499 10.1784C100.25 11.7769 100.348 13.3685 100.4 14.9684C100.496 17.9119 99.9892 20.8056 100.607 23.7339C100.741 24.3711 100.924 25.0083 101.262 25.5651C101.689 26.266 102.341 26.7744 103.173 26.8312C103.345 26.8437 103.511 26.8866 103.681 26.8991C104.745 26.9766 105.944 26.6137 106.547 25.6856C106.889 25.1593 107.058 24.5401 107.198 23.9278C108.058 20.1573 107.958 16.2317 107.018 12.4861C106.771 11.4985 106.442 10.5247 106.525 9.47888C106.598 8.54941 107.212 7.81942 108.106 7.55762C108.789 7.35815 109.421 7.51744 110.052 7.746C111.198 8.61175 111.429 9.9069 111.628 11.1854C111.943 13.1649 112.26 15.1512 112.426 17.1487C112.57 18.894 112.522 20.6588 112.396 22.4138V22.411ZM124.663 24.2894C124.986 24.5055 125.548 24.7118 125.824 24.824C127.27 25.4155 128.773 25.9419 130.306 26.255C130.613 26.3173 130.925 26.3699 131.223 26.4724C131.898 26.7038 132.493 27.2163 132.735 27.8867C133.152 29.0364 132.389 30.0712 131.344 30.4881C130.649 30.7651 129.925 30.7554 129.18 30.725C127.86 30.6696 126.561 30.4936 125.283 30.1709C123.639 29.7581 122.13 29.0447 120.711 28.1291C119.963 27.6457 119.973 27.6401 119.762 28.4796C119.485 29.6002 118.913 30.4562 117.69 30.6931C115.059 31.2042 114.087 28.963 114.178 26.7301C114.208 25.989 114.239 25.2465 114.269 24.5055C114.344 22.6853 114.419 20.8666 114.455 19.045C114.498 16.8426 114.484 14.6387 114.577 12.4377C114.636 11.0414 114.358 7.96902 116.211 7.53822C117.488 7.23902 118.759 6.86363 120.086 6.86363C121.527 6.86641 122.961 6.98692 124.374 7.26118C127.795 7.92469 131.552 9.7296 132.89 13.1815C133.528 14.8285 133.519 16.7359 132.765 18.333C132.264 19.3955 131.461 20.2931 130.558 21.0452C128.972 22.3667 127.05 23.2809 125.025 23.6771C124.248 23.8295 124.324 24.0636 124.658 24.288L124.663 24.2894ZM153.45 29.7096C152.689 30.5435 151.695 30.8178 150.633 30.8829C146.809 31.1156 142.941 31.3843 139.113 31.1031C137.428 30.9798 134.931 31.7015 134.256 29.5046C134.167 29.2179 134.203 28.9284 134.197 28.643C134.323 27.9989 134.25 27.3562 134.24 26.7065C134.16 21.3957 133.922 16.0308 134.293 10.7297C134.394 9.28772 134.419 7.84989 135.912 7.20578C136.947 6.76529 138.052 6.66971 139.132 6.66417C143.306 6.63923 147.486 6.50348 151.645 7.07003C152.572 7.31936 153.347 7.74462 153.621 8.75442C153.81 9.68112 153.437 10.3585 152.68 10.8627C152.511 10.9735 152.337 11.0788 152.169 11.1854C149.651 11.6993 147.098 11.6661 144.555 11.5885C142.903 11.5387 141.248 11.5664 139.596 11.5331C139.482 11.5303 139.366 11.529 139.262 11.5747C138.957 11.7104 138.956 12.1357 138.999 12.4667C139.218 14.2024 139.251 15.9616 139.099 17.7042C139.081 17.9175 139.079 18.1737 139.258 18.2915C139.356 18.3552 139.481 18.3552 139.597 18.3524C142.531 18.2956 145.508 18.2222 148.397 18.8234C148.782 18.9591 149.167 19.0977 149.505 19.3373C150.568 20.095 150.502 21.5384 149.357 22.1603C148.35 22.7089 147.249 22.9208 146.116 23.0191C146.021 23.0496 145.928 23.105 145.83 23.1119C144.755 23.1798 143.684 23.2532 142.61 23.3031C141.653 23.346 140.698 23.3682 139.741 23.3765C139.344 23.3765 139.187 23.533 139.2 23.9251C139.215 24.4362 139.21 24.9501 139.197 25.4612C139.187 25.784 139.313 25.935 139.65 25.9142C140.161 25.8809 140.672 25.8311 141.183 25.8339C144.92 25.8436 148.666 25.6025 152.382 26.2369C152.729 26.5389 153.145 26.7481 153.459 27.0958C154.119 27.8258 154.114 28.9769 153.45 29.7096ZM127.458 17.0573C127.471 17.0379 127.482 17.0185 127.494 16.9991C127.997 16.1624 128.108 15.0557 127.619 14.2107C127.256 13.5846 126.626 13.169 126.014 12.7839C125.734 12.608 125.453 12.4321 125.163 12.2687C123.666 11.4195 122.002 10.9264 120.287 10.7934C119.557 10.738 119.554 10.7408 119.554 11.4736C119.557 13.2009 119.564 14.9255 119.567 16.6514C119.509 17.5047 119.635 18.351 119.662 19.2002C119.672 19.5201 119.851 19.6407 120.158 19.6504C121.853 19.7044 123.669 19.444 125.246 18.7957C126.129 18.4328 126.953 17.8621 127.46 17.0559L127.458 17.0573ZM68.7904 12.6607C68.483 12.3462 68.0675 12.2202 67.6797 12.054C66.3903 11.5123 65.0206 11.3267 63.644 11.1577C62.8338 11.0594 62.6953 11.1356 62.7202 11.9611C62.7576 13.2383 62.8365 14.5141 62.8988 15.7884C62.8933 16.6569 62.8989 17.5282 62.8712 18.3995C62.8587 18.8054 63.0526 18.9051 63.4044 18.8705C63.9653 18.8151 64.5303 18.7846 65.0885 18.707C66.7809 18.4757 68.3362 17.9216 69.6505 16.783C71.1158 15.5142 70.7432 13.4918 68.7918 12.6607H68.7904ZM47.7808 12.5221C47.6824 12.313 47.6298 12.0359 47.3528 11.9501C47.3805 11.8448 47.3583 11.7686 47.2392 11.7437C46.8459 11.1092 46.6603 11.0331 46.3806 11.4486C45.4568 12.813 44.8474 14.3174 44.4776 15.9186C44.1051 16.7498 44.022 17.6612 43.7699 18.527C43.6494 18.9481 43.8032 19.0686 44.2256 19.0284C45.9678 18.8622 47.7157 18.8566 49.4621 18.8802C49.8956 18.8857 49.9856 18.7389 49.89 18.3289C49.4122 16.312 48.6311 14.406 47.7821 12.5221H47.7808ZM49.89 18.3275C49.4122 16.3107 48.6311 14.4046 47.7821 12.5208C47.6838 12.3116 47.6312 12.0346 47.3542 11.9487C47.3819 11.8434 47.3597 11.7672 47.2406 11.7423C46.8473 11.1079 46.6617 11.0317 46.3819 11.4472C45.4582 12.8117 44.8488 14.316 44.479 15.9173C44.1065 16.7484 44.0234 17.6598 43.7713 18.5256C43.6508 18.9467 43.8046 19.0672 44.227 19.027C45.9692 18.8608 47.717 18.8552 49.4635 18.8788C49.8969 18.8843 49.987 18.7375 49.8914 18.3275H49.89ZM68.7904 12.6607C68.483 12.3462 68.0675 12.2202 67.6797 12.054C66.3903 11.5123 65.0206 11.3267 63.644 11.1577C62.8338 11.0594 62.6953 11.1356 62.7202 11.9611C62.7576 13.2383 62.8365 14.5141 62.8988 15.7884C62.8933 16.6569 62.8989 17.5282 62.8712 18.3995C62.8587 18.8054 63.0526 18.9051 63.4044 18.8705C63.9653 18.8151 64.5303 18.7846 65.0885 18.707C66.7809 18.4757 68.3362 17.9216 69.6505 16.783C71.1158 15.5142 70.7432 13.4918 68.7918 12.6607H68.7904ZM68.7904 12.6607C68.483 12.3462 68.0675 12.2202 67.6797 12.054C66.3903 11.5123 65.0206 11.3267 63.644 11.1577C62.8338 11.0594 62.6953 11.1356 62.7202 11.9611C62.7576 13.2383 62.8365 14.5141 62.8988 15.7884C62.8933 16.6569 62.8989 17.5282 62.8712 18.3995C62.8587 18.8054 63.0526 18.9051 63.4044 18.8705C63.9653 18.8151 64.5303 18.7846 65.0885 18.707C66.7809 18.4757 68.3362 17.9216 69.6505 16.783C71.1158 15.5142 70.7432 13.4918 68.7918 12.6607H68.7904ZM49.89 18.3275C49.4122 16.3107 48.6311 14.4046 47.7821 12.5208C47.6838 12.3116 47.6312 12.0346 47.3542 11.9487C47.3819 11.8434 47.3597 11.7672 47.2406 11.7423C46.8473 11.1079 46.6617 11.0317 46.3819 11.4472C45.4582 12.8117 44.8488 14.316 44.479 15.9173C44.1065 16.7484 44.0234 17.6598 43.7713 18.5256C43.6508 18.9467 43.8046 19.0672 44.227 19.027C45.9692 18.8608 47.717 18.8552 49.4635 18.8788C49.8969 18.8843 49.987 18.7375 49.8914 18.3275H49.89ZM49.89 18.3275C49.4122 16.3107 48.6311 14.4046 47.7821 12.5208C47.6838 12.3116 47.6312 12.0346 47.3542 11.9487C47.3819 11.8434 47.3597 11.7672 47.2406 11.7423C46.8473 11.1079 46.6617 11.0317 46.3819 11.4472C45.4582 12.8117 44.8488 14.316 44.479 15.9173C44.1065 16.7484 44.0234 17.6598 43.7713 18.5256C43.6508 18.9467 43.8046 19.0672 44.227 19.027C45.9692 18.8608 47.717 18.8552 49.4635 18.8788C49.8969 18.8843 49.987 18.7375 49.8914 18.3275H49.89ZM68.7904 12.6607C68.483 12.3462 68.0675 12.2202 67.6797 12.054C66.3903 11.5123 65.0206 11.3267 63.644 11.1577C62.8338 11.0594 62.6953 11.1356 62.7202 11.9611C62.7576 13.2383 62.8365 14.5141 62.8988 15.7884C62.8933 16.6569 62.8989 17.5282 62.8712 18.3995C62.8587 18.8054 63.0526 18.9051 63.4044 18.8705C63.9653 18.8151 64.5303 18.7846 65.0885 18.707C66.7809 18.4757 68.3362 17.9216 69.6505 16.783C71.1158 15.5142 70.7432 13.4918 68.7918 12.6607H68.7904ZM68.8154 12.6163C67.2143 11.6924 65.4569 11.3807 63.644 11.1577C62.8338 11.0594 62.6953 11.1356 62.7202 11.9611C62.7576 13.2383 62.8365 14.5141 62.8988 15.7884C62.8933 16.6569 62.8989 17.5282 62.8712 18.3995C62.8587 18.8054 63.0526 18.9051 63.4044 18.8705C63.9653 18.8151 64.5303 18.7846 65.0885 18.707C66.7809 18.4757 68.3362 17.9216 69.6505 16.783C70.2889 16.2289 70.667 15.4103 70.5036 14.5612C70.3402 13.712 69.6159 13.0859 68.8818 12.6537C68.8597 12.6413 68.8389 12.6288 68.8167 12.6163H68.8154ZM49.89 18.3275C49.4371 16.3813 48.6685 14.5307 47.8722 12.705C47.7794 12.4931 47.6852 12.2784 47.5467 12.0927C47.2808 11.7354 46.8016 10.8225 46.3806 11.4472C45.4568 12.8117 44.8474 14.316 44.4776 15.9173C44.1051 16.7484 44.022 17.6598 43.7699 18.5256C43.6494 18.9467 43.8032 19.0672 44.2256 19.027C45.9678 18.8608 47.7157 18.8552 49.4621 18.8788C49.8956 18.8843 49.9856 18.7375 49.89 18.3275Z" fill="white"/>
</svg>
