<svg width="50" height="53" viewBox="0 0 50 53" fill="none" xmlns="http://www.w3.org/2000/svg">
<path d="M29.9118 17.7379C29.9187 18.0605 29.109 18.1516 28.2999 18.799C27.5108 19.428 27.1086 20.07 27.0129 20.2968C26.3256 21.9064 26.8435 21.9025 26.1257 22.4312C25.961 22.5514 25.6653 22.6733 25.1098 22.5622C25.1098 22.5622 13.8034 19.703 10.1943 18.904C9.64726 18.7829 9.13013 19.202 9.13396 19.7628C9.15388 22.576 9.22283 25.3884 9.2688 28.2008C9.29867 30.0379 9.28948 31.8782 9.34081 33.7153C9.38908 35.4697 9.20291 37.1253 9.69552 38.856C10.0602 40.1369 10.657 41.3374 11.1259 42.5839C11.4997 43.5768 11.7932 44.5995 12.0031 45.6392C12.1226 46.2314 12.2061 46.881 11.915 47.4104C11.5924 47.9957 10.8746 48.2731 10.2058 48.2578C8.2422 48.2126 5.97449 47.0159 4.13351 46.3631C3.65085 46.1923 2.83264 45.7028 2.44805 45.191C1.95237 44.5413 1.67197 43.743 1.66967 42.9026L1.88572 6.17338C1.88572 5.36359 1.68576 4.5653 1.305 3.85204L0.135139 1.66401C-0.264775 0.921639 0.270742 0.0183865 1.11347 0.00919304L1.88495 0H6.29856C7.96563 0 9.31629 1.35143 9.31629 3.01774V10.6705C9.31629 11.1087 9.73919 11.4221 10.1575 11.2933C12.976 10.4276 19.5371 8.41427 21.5397 7.78682C23.1692 7.27429 28.2838 8.87164 29.5204 9.27386C29.7456 9.34664 30.085 9.79328 29.7004 9.92046C26.9914 10.8161 14.9725 15.1921 14.9725 15.1921C14.5573 15.3361 14.5152 14.9155 14.9503 14.9715C19.1647 15.5062 26.2138 16.4049 28.8692 17.1235C29.0668 17.1771 29.9057 17.4085 29.9095 17.7372L29.9118 17.7379Z" fill="white"/>
<path d="M48.5898 14.036C48.5722 15.1852 48.55 17.2775 48.5254 18.7476C48.5055 19.9504 47.256 20.8185 46.4018 19.9711C45.1944 18.7722 42.3069 17.6552 40.7425 17.6552C36.5457 17.6552 30.2374 23.0157 30.8327 32.4412C31.464 42.446 37.5217 43.0137 41.4833 41.1014C45.4954 39.1647 45.6464 36.5469 47.0062 34.1275C47.2774 33.6448 48.4856 33.2388 49.0204 33.3836C50.2186 33.7069 49.9857 37.7474 49.9749 38.3894C49.9749 39.2643 49.8462 39.8703 49.1177 40.6303C48.291 41.4929 47.0591 42.138 46.0861 42.8175C44.7094 43.7798 43.325 44.7321 41.9345 45.6744C40.2966 46.7845 38.6487 47.8808 36.9915 48.9626C35.5137 49.9279 34.0037 51.1989 32.2876 51.6899C29.2499 52.5595 25.964 51.6424 22.9724 51.0142C22.3089 50.8694 21.601 50.6794 21.1689 50.1554C20.6878 49.5724 20.6855 48.712 20.9391 48.0003C21.1927 47.2886 21.6623 46.678 22.0745 46.0444C24.1951 42.7884 24.2096 39.5248 24.2295 35.8076C24.2487 32.1984 24.192 28.5907 24.2786 24.9815C24.3039 24.7119 24.3291 24.4437 24.3544 24.174L24.3996 23.8937C24.4234 23.7481 24.4418 23.6002 24.4548 23.4531C24.5306 22.5675 24.5919 22.3239 24.9374 21.393C25.0547 21.0774 25.5427 19.9474 26.4988 19.0028C26.8612 18.6442 27.3714 18.2366 29.1434 17.4598C30.6895 16.7825 31.0587 16.7611 33.7608 15.7789C35.1935 15.258 36.4453 14.7684 37.1953 14.4796C37.7615 14.2613 38.4081 14.0061 39.3451 13.6292C40.852 13.0232 42.3582 12.4111 43.8506 11.7737C45.2288 11.1615 47.6674 9.92656 48.3875 11.9338L48.4021 11.9736C48.6051 12.5995 48.5967 13.3519 48.5906 14.0352L48.5898 14.036Z" fill="white"/>
</svg>
