<svg width="39" height="39" viewBox="0 0 39 39" fill="none" xmlns="http://www.w3.org/2000/svg">
<path fill-rule="evenodd" clip-rule="evenodd" d="M19.0752 0.0231934C29.5616 0.0231934 38.0752 8.53683 38.0752 19.0232C38.0752 29.5096 29.5616 38.0232 19.0752 38.0232C8.58883 38.0232 0.0751953 29.5096 0.0751953 19.0232C0.0751953 8.53683 8.58883 0.0231934 19.0752 0.0231934ZM19.0752 7.14819C15.8502 7.14819 15.4458 7.16185 14.1791 7.21967C12.9152 7.27733 12.0519 7.4781 11.2966 7.77163C10.5157 8.07511 9.85344 8.48116 9.19326 9.14134C8.53309 9.80151 8.12704 10.4638 7.82356 11.2446C7.53002 11.9999 7.32934 12.8632 7.27159 14.1271C7.21385 15.3937 7.2002 15.7982 7.2002 19.0232C7.2002 22.2482 7.21385 22.6526 7.27159 23.9193C7.32934 25.1832 7.53002 26.0464 7.82356 26.8018C8.12704 27.5826 8.53309 28.2449 9.19326 28.9051C9.85344 29.5653 10.5157 29.9713 11.2966 30.2748C12.0519 30.5683 12.9152 30.7691 14.1791 30.8267C15.4458 30.8845 15.8502 30.8982 19.0752 30.8982C22.3002 30.8982 22.7046 30.8845 23.9713 30.8267C25.2352 30.7691 26.0984 30.5683 26.8538 30.2748C27.6346 29.9713 28.2969 29.5653 28.9571 28.9051C29.6173 28.2449 30.0234 27.5826 30.3268 26.8018C30.6203 26.0464 30.8211 25.1832 30.8787 23.9193C30.9365 22.6526 30.9502 22.2482 30.9502 19.0232C30.9502 15.7982 30.9365 15.3937 30.8787 14.1271C30.8211 12.8632 30.6203 11.9999 30.3268 11.2446C30.0234 10.4638 29.6173 9.80151 28.9571 9.14134C28.2969 8.48116 27.6346 8.07511 26.8538 7.77163C26.0984 7.4781 25.2352 7.27733 23.9713 7.21967C22.7046 7.16185 22.3002 7.14819 19.0752 7.14819ZM19.0752 9.28785C22.246 9.28785 22.6215 9.29994 23.8737 9.35709C25.0315 9.40994 25.6603 9.60335 26.0787 9.76596C26.633 9.98135 27.0286 10.2387 27.4441 10.6543C27.8597 11.0698 28.117 11.4654 28.3324 12.0197C28.495 12.4381 28.6885 13.0668 28.7413 14.2247C28.7984 15.4769 28.8105 15.8524 28.8105 19.0232C28.8105 22.194 28.7984 22.5695 28.7413 23.8217C28.6885 24.9795 28.495 25.6083 28.3324 26.0267C28.117 26.581 27.8597 26.9766 27.4441 27.3921C27.0286 27.8077 26.633 28.065 26.0787 28.2804C25.6603 28.443 25.0315 28.6365 23.8737 28.6893C22.6217 28.7464 22.2462 28.7585 19.0752 28.7585C15.9042 28.7585 15.5287 28.7464 14.2767 28.6893C13.1188 28.6365 12.4901 28.443 12.0717 28.2804C11.5174 28.065 11.1218 27.8077 10.7062 27.3921C10.2907 26.9766 10.0333 26.581 9.81796 26.0267C9.65535 25.6083 9.46186 24.9795 9.40902 23.8217C9.35187 22.5695 9.33985 22.194 9.33985 19.0232C9.33985 15.8524 9.35187 15.4769 9.40902 14.2247C9.46186 13.0668 9.65535 12.4381 9.81796 12.0197C10.0333 11.4654 10.2907 11.0698 10.7062 10.6543C11.1218 10.2387 11.5174 9.98135 12.0717 9.76596C12.4901 9.60335 13.1188 9.40994 14.2767 9.35709C15.5289 9.29994 15.9044 9.28785 19.0752 9.28785ZM19.0752 12.9252C15.7074 12.9252 12.9772 15.6554 12.9772 19.0232C12.9772 22.391 15.7074 25.1212 19.0752 25.1212C22.443 25.1212 25.1732 22.391 25.1732 19.0232C25.1732 15.6554 22.443 12.9252 19.0752 12.9252ZM19.0752 22.9815C16.8891 22.9815 15.1169 21.2093 15.1169 19.0232C15.1169 16.8371 16.8891 15.0649 19.0752 15.0649C21.2613 15.0649 23.0335 16.8371 23.0335 19.0232C23.0335 21.2093 21.2613 22.9815 19.0752 22.9815ZM26.8391 12.6843C26.8391 13.4713 26.2011 14.1092 25.4141 14.1092C24.6271 14.1092 23.9891 13.4713 23.9891 12.6843C23.9891 11.8973 24.6271 11.2593 25.4141 11.2593C26.2011 11.2593 26.8391 11.8973 26.8391 12.6843Z" fill="white"/>
</svg>
