<svg width="304" height="53" viewBox="0 0 304 53" fill="none" xmlns="http://www.w3.org/2000/svg">
<path d="M29.9118 17.7379C29.9187 18.0605 29.109 18.1516 28.2999 18.799C27.5108 19.428 27.1086 20.07 27.0129 20.2968C26.3256 21.9064 26.8435 21.9025 26.1257 22.4312C25.961 22.5514 25.6653 22.6733 25.1098 22.5622C25.1098 22.5622 13.8034 19.703 10.1943 18.904C9.64726 18.7829 9.13013 19.202 9.13396 19.7628C9.15388 22.576 9.22283 25.3884 9.2688 28.2008C9.29867 30.0379 9.28948 31.8782 9.34081 33.7153C9.38908 35.4697 9.20291 37.1253 9.69552 38.856C10.0602 40.1369 10.657 41.3374 11.1259 42.5839C11.4997 43.5768 11.7932 44.5995 12.0031 45.6392C12.1226 46.2314 12.2061 46.881 11.915 47.4104C11.5924 47.9957 10.8746 48.2731 10.2058 48.2578C8.2422 48.2126 5.97449 47.0159 4.13351 46.3631C3.65085 46.1923 2.83264 45.7028 2.44805 45.191C1.95237 44.5413 1.67197 43.743 1.66967 42.9026L1.88572 6.17338C1.88572 5.36359 1.68576 4.5653 1.305 3.85204L0.135139 1.66401C-0.264775 0.921639 0.270742 0.0183865 1.11347 0.00919304L1.88495 0H6.29856C7.96563 0 9.31629 1.35143 9.31629 3.01774V10.6705C9.31629 11.1087 9.73919 11.4221 10.1575 11.2933C12.976 10.4276 19.5371 8.41427 21.5397 7.78682C23.1692 7.27429 28.2838 8.87164 29.5204 9.27386C29.7456 9.34664 30.085 9.79328 29.7004 9.92046C26.9914 10.8161 14.9725 15.1921 14.9725 15.1921C14.5573 15.3361 14.5152 14.9155 14.9503 14.9715C19.1647 15.5062 26.2138 16.4049 28.8692 17.1235C29.0668 17.1771 29.9057 17.4085 29.9095 17.7372L29.9118 17.7379Z" fill="#E55A94"/>
<path d="M48.5898 14.036C48.5722 15.1852 48.55 17.2775 48.5254 18.7476C48.5055 19.9504 47.256 20.8185 46.4018 19.9711C45.1944 18.7722 42.3069 17.6552 40.7425 17.6552C36.5457 17.6552 30.2374 23.0157 30.8327 32.4412C31.464 42.446 37.5217 43.0137 41.4833 41.1014C45.4954 39.1647 45.6464 36.5469 47.0062 34.1275C47.2774 33.6448 48.4856 33.2388 49.0204 33.3836C50.2186 33.7069 49.9857 37.7474 49.9749 38.3894C49.9749 39.2643 49.8462 39.8703 49.1177 40.6303C48.291 41.4929 47.0591 42.138 46.0861 42.8175C44.7094 43.7798 43.325 44.7321 41.9345 45.6744C40.2966 46.7845 38.6487 47.8808 36.9915 48.9626C35.5137 49.9279 34.0037 51.1989 32.2876 51.6899C29.2499 52.5595 25.964 51.6424 22.9724 51.0142C22.3089 50.8694 21.601 50.6794 21.1689 50.1554C20.6878 49.5724 20.6855 48.712 20.9391 48.0003C21.1927 47.2886 21.6623 46.678 22.0745 46.0444C24.1951 42.7884 24.2096 39.5248 24.2295 35.8076C24.2487 32.1984 24.192 28.5907 24.2786 24.9815C24.3039 24.7119 24.3291 24.4437 24.3544 24.174L24.3996 23.8937C24.4234 23.7481 24.4418 23.6002 24.4548 23.4531C24.5306 22.5675 24.5919 22.3239 24.9374 21.393C25.0547 21.0774 25.5427 19.9474 26.4988 19.0028C26.8612 18.6442 27.3714 18.2366 29.1434 17.4598C30.6895 16.7825 31.0587 16.7611 33.7608 15.7789C35.1935 15.258 36.4453 14.7684 37.1953 14.4796C37.7615 14.2613 38.4081 14.0061 39.3451 13.6292C40.852 13.0232 42.3582 12.4111 43.8506 11.7737C45.2288 11.1615 47.6674 9.92656 48.3875 11.9338L48.4021 11.9736C48.6051 12.5995 48.5967 13.3519 48.5906 14.0352L48.5898 14.036Z" fill="#3E9DA2"/>
<path d="M300.979 14.1818C302.253 14.9437 302.761 16.0837 302.728 17.5382C302.611 22.8822 303.221 28.2097 303.042 33.551C302.967 35.813 302.858 39.8619 299.973 40.3288C298.686 40.5365 297.682 39.9728 296.896 39.0488C295.077 36.9115 293.564 34.547 291.932 32.2711C290.712 30.5673 289.539 28.8289 288.345 27.1071C288.229 26.9395 288.135 26.6998 287.869 26.7913C287.636 26.8716 287.7 27.0988 287.697 27.2844C287.651 30.6726 287.503 34.0594 287.55 37.4503C287.571 38.9491 286.804 39.9104 285.399 40.3135C284.099 40.6875 282.692 40.1999 282.009 39.1416C281.688 38.643 281.592 38.0861 281.573 37.5085C281.451 33.8918 281.426 30.2709 281.46 26.6527C281.478 24.8215 281.51 22.9889 281.553 21.1577C281.592 19.5107 281.474 17.7681 281.855 16.1627C282.042 15.3773 282.455 14.6154 283.129 14.1735C284.239 13.4491 285.727 13.6416 286.73 14.4436C287.115 14.7512 287.468 15.1072 287.802 15.4728C290.939 18.9164 293.145 22.9473 295.641 26.8439C295.727 26.9783 295.788 27.2193 295.991 27.1639C296.232 27.0988 296.128 26.848 296.148 26.6707C296.156 26.5959 296.148 26.5184 296.149 26.4422C296.16 23.4696 296.169 20.4983 296.185 17.5257C296.195 15.664 296.951 14.5323 298.462 14.0198C299.333 13.7247 300.153 13.9034 300.977 14.1805L300.979 14.1818Z" fill="white"/>
<path d="M279.866 32.6119C279.146 34.1564 278.256 35.5762 277.002 36.7675C274.091 39.5337 270.654 40.549 266.668 40.2041C261.465 39.7539 258.058 36.8852 255.668 32.5066C255.436 32.0786 255.199 31.6519 254.965 31.2253C255.034 30.8264 254.808 30.4898 254.736 30.1199C253.825 25.4435 254.941 21.3212 258.228 17.854C262.169 13.6971 268.416 12.4739 273.619 14.8856C276.702 16.3137 279.311 18.8375 280.423 22.0969C281.567 25.4532 281.365 29.3955 279.865 32.6133L279.866 32.6119ZM273.271 22.1717C272.108 20.4956 270.453 19.1533 268.409 18.886C265.91 18.5591 263.344 19.7531 261.845 21.7492C261.675 21.975 261.52 22.2119 261.379 22.4556C260.445 24.0722 260.1 25.9976 260.283 27.8565C260.485 29.9108 261.344 31.9276 262.826 33.364C264.308 34.8019 266.43 35.6094 268.476 35.3393C269.989 35.1399 271.392 34.3766 272.512 33.3419C273.623 32.3141 274.484 30.9968 274.872 29.5326C275.313 27.869 275.123 26.071 274.494 24.4683C274.185 23.6802 273.775 22.8948 273.273 22.1717H273.271Z" fill="white"/>
<path d="M251.955 32.7158C252.212 32.8793 252.476 33.0289 252.721 33.2062C254.043 34.1661 254.105 35.9059 252.865 36.9794C250.856 38.7192 248.471 39.6598 245.881 40.0185C241.884 40.5698 238.132 39.7747 234.71 37.6152C232.797 36.4087 231.356 34.7548 230.296 32.7657C230.065 32.3321 229.841 31.893 229.613 31.458C229.651 31.2378 229.536 31.0494 229.476 30.8513C228.123 26.3425 228.993 22.2465 232.243 18.8999C236.625 14.3897 242.675 13.0571 248.672 14.6501C249.526 14.8773 250.368 15.1543 251.176 15.5172C253.13 16.3955 257.328 19.3431 254.394 21.5608C253.905 21.9307 253.331 22.0526 252.763 22.205C251.658 22.1509 250.695 21.7215 249.809 21.0926C248.097 19.8778 246.195 19.1631 244.089 19.2531C241.818 19.3515 239.53 19.9679 237.771 21.4667C235.772 23.1704 234.479 25.812 235.022 28.4591C235.598 31.278 237.994 33.166 240.639 33.9569C243.323 34.759 245.946 34.2977 248.461 33.2172C249.602 32.7283 250.728 32.4471 251.957 32.7158H251.955Z" fill="white"/>
<path d="M110.89 25.3507C110.412 23.3338 109.631 21.4278 108.782 19.544C108.684 19.3348 108.631 19.0578 108.354 18.9719C108.382 18.8666 108.36 18.7904 108.241 18.7655C107.847 18.1311 107.662 18.0549 107.382 18.4704C106.458 19.8348 105.849 21.3392 105.479 22.9404C105.106 23.7716 105.023 24.683 104.771 25.5488C104.651 25.9699 104.805 26.0904 105.227 26.0502C106.969 25.884 108.717 25.8784 110.463 25.902C110.897 25.9075 110.987 25.7607 110.891 25.3507H110.89ZM110.89 25.3507C110.412 23.3338 109.631 21.4278 108.782 19.544C108.684 19.3348 108.631 19.0578 108.354 18.9719C108.382 18.8666 108.36 18.7904 108.241 18.7655C107.847 18.1311 107.662 18.0549 107.382 18.4704C106.458 19.8348 105.849 21.3392 105.479 22.9404C105.106 23.7716 105.023 24.683 104.771 25.5488C104.651 25.9699 104.805 26.0904 105.227 26.0502C106.969 25.884 108.717 25.8784 110.463 25.902C110.897 25.9075 110.987 25.7607 110.891 25.3507H110.89ZM110.89 25.3507C110.412 23.3338 109.631 21.4278 108.782 19.544C108.684 19.3348 108.631 19.0578 108.354 18.9719C108.382 18.8666 108.36 18.7904 108.241 18.7655C107.847 18.1311 107.662 18.0549 107.382 18.4704C106.458 19.8348 105.849 21.3392 105.479 22.9404C105.106 23.7716 105.023 24.683 104.771 25.5488C104.651 25.9699 104.805 26.0904 105.227 26.0502C106.969 25.884 108.717 25.8784 110.463 25.902C110.897 25.9075 110.987 25.7607 110.891 25.3507H110.89ZM129.79 19.6839C129.483 19.3694 129.067 19.2434 128.68 19.0771C127.39 18.5355 126.021 18.3499 124.644 18.1809C123.834 18.0826 123.695 18.1588 123.72 18.9843C123.758 20.2615 123.837 21.5372 123.899 22.8116C123.893 23.6801 123.899 24.5514 123.871 25.4227C123.859 25.8286 124.053 25.9283 124.404 25.8937C124.965 25.8383 125.53 25.8078 126.088 25.7302C127.781 25.4989 129.336 24.9448 130.65 23.8062C132.116 22.5374 131.743 20.515 129.792 19.6839H129.79ZM129.79 19.6839C129.483 19.3694 129.067 19.2434 128.68 19.0771C127.39 18.5355 126.021 18.3499 124.644 18.1809C123.834 18.0826 123.695 18.1588 123.72 18.9843C123.758 20.2615 123.837 21.5372 123.899 22.8116C123.893 23.6801 123.899 24.5514 123.871 25.4227C123.859 25.8286 124.053 25.9283 124.404 25.8937C124.965 25.8383 125.53 25.8078 126.088 25.7302C127.781 25.4989 129.336 24.9448 130.65 23.8062C132.116 22.5374 131.743 20.515 129.792 19.6839H129.79ZM110.89 25.3507C110.412 23.3338 109.631 21.4278 108.782 19.544C108.684 19.3348 108.631 19.0578 108.354 18.9719C108.382 18.8666 108.36 18.7904 108.241 18.7655C107.847 18.1311 107.662 18.0549 107.382 18.4704C106.458 19.8348 105.849 21.3392 105.479 22.9404C105.106 23.7716 105.023 24.683 104.771 25.5488C104.651 25.9699 104.805 26.0904 105.227 26.0502C106.969 25.884 108.717 25.8784 110.463 25.902C110.897 25.9075 110.987 25.7607 110.891 25.3507H110.89ZM110.89 25.3507C110.412 23.3338 109.631 21.4278 108.782 19.544C108.684 19.3348 108.631 19.0578 108.354 18.9719C108.382 18.8666 108.36 18.7904 108.241 18.7655C107.847 18.1311 107.662 18.0549 107.382 18.4704C106.458 19.8348 105.849 21.3392 105.479 22.9404C105.106 23.7716 105.023 24.683 104.771 25.5488C104.651 25.9699 104.805 26.0904 105.227 26.0502C106.969 25.884 108.717 25.8784 110.463 25.902C110.897 25.9075 110.987 25.7607 110.891 25.3507H110.89ZM129.79 19.6839C129.483 19.3694 129.067 19.2434 128.68 19.0771C127.39 18.5355 126.021 18.3499 124.644 18.1809C123.834 18.0826 123.695 18.1588 123.72 18.9843C123.758 20.2615 123.837 21.5372 123.899 22.8116C123.893 23.6801 123.899 24.5514 123.871 25.4227C123.859 25.8286 124.053 25.9283 124.404 25.8937C124.965 25.8383 125.53 25.8078 126.088 25.7302C127.781 25.4989 129.336 24.9448 130.65 23.8062C132.116 22.5374 131.743 20.515 129.792 19.6839H129.79ZM187.439 20.1424C187.402 20.1271 187.341 20.1645 187.291 20.1756C187.263 19.9387 187.069 19.8529 186.9 19.7379C185.195 18.6076 183.323 17.9731 181.286 17.8166C180.556 17.7612 180.553 17.764 180.553 18.4968C180.556 20.2241 180.563 21.9486 180.565 23.6746C180.507 24.5279 180.633 25.3742 180.661 26.2234C180.671 26.5433 180.849 26.6638 181.157 26.6735C182.798 26.7262 184.398 26.5253 185.931 25.9158C186.931 25.5155 187.817 24.9587 188.486 24.0957C189.43 22.8698 188.864 20.7117 187.439 20.1396V20.1424ZM187.439 20.1424C187.402 20.1271 187.341 20.1645 187.291 20.1756C187.263 19.9387 187.069 19.8529 186.9 19.7379C185.195 18.6076 183.323 17.9731 181.286 17.8166C180.556 17.7612 180.553 17.764 180.553 18.4968C180.556 20.2241 180.563 21.9486 180.565 23.6746C180.507 24.5279 180.633 25.3742 180.661 26.2234C180.671 26.5433 180.849 26.6638 181.157 26.6735C182.798 26.7262 184.398 26.5253 185.931 25.9158C186.931 25.5155 187.817 24.9587 188.486 24.0957C189.43 22.8698 188.864 20.7117 187.439 20.1396V20.1424ZM129.79 19.6839C129.483 19.3694 129.067 19.2434 128.68 19.0771C127.39 18.5355 126.021 18.3499 124.644 18.1809C123.834 18.0826 123.695 18.1588 123.72 18.9843C123.758 20.2615 123.837 21.5372 123.899 22.8116C123.893 23.6801 123.899 24.5514 123.871 25.4227C123.859 25.8286 124.053 25.9283 124.404 25.8937C124.965 25.8383 125.53 25.8078 126.088 25.7302C127.781 25.4989 129.336 24.9448 130.65 23.8062C132.116 22.5374 131.743 20.515 129.792 19.6839H129.79ZM110.89 25.3507C110.412 23.3338 109.631 21.4278 108.782 19.544C108.684 19.3348 108.631 19.0578 108.354 18.9719C108.382 18.8666 108.36 18.7904 108.241 18.7655C107.847 18.1311 107.662 18.0549 107.382 18.4704C106.458 19.8348 105.849 21.3392 105.479 22.9404C105.106 23.7716 105.023 24.683 104.771 25.5488C104.651 25.9699 104.805 26.0904 105.227 26.0502C106.969 25.884 108.717 25.8784 110.463 25.902C110.897 25.9075 110.987 25.7607 110.891 25.3507H110.89ZM208.082 7.02319H79.9973C74.7484 7.02319 70.0022 9.15085 66.5647 12.5889C63.1259 16.0242 61 20.7754 61 26.0211C61 36.5167 69.505 45.0232 79.9987 45.0232H208.083C213.328 45.0232 218.078 42.8955 221.513 39.4575C224.952 36.0181 227.078 31.271 227.078 26.0225C227.078 15.5297 218.573 7.02319 208.082 7.02319ZM94.6183 37.3825C93.61 37.1775 92.822 36.4904 92.045 35.8629C91.1864 35.1689 90.3471 34.4486 89.53 33.7048C87.8971 32.2171 86.3515 30.631 84.9056 28.9605C84.6314 28.6433 84.2768 28.2956 83.8461 28.5159C83.0802 28.9092 82.5734 29.1683 82.5 30.0839C82.3808 31.573 82.2493 33.0634 82.1149 34.5525C82.0582 35.1772 81.9944 35.8255 81.6718 36.363C81.1524 37.2246 80.0541 37.6027 79.0514 37.5182C78.4587 37.4684 77.8618 37.2717 77.4255 36.8658C77.0308 36.5001 76.794 35.989 76.6707 35.464C76.5474 34.939 76.5308 34.3974 76.5156 33.8585C76.4159 30.2238 76.5405 26.596 76.5017 22.9626C76.481 20.9901 76.4159 19.0093 76.6513 17.0506C76.7552 16.1918 76.9228 15.3177 77.3244 14.5434C77.7219 13.7774 78.4019 13.3521 79.2412 13.1651C80.5001 12.8853 81.8781 13.5447 82.4072 14.7249C82.6509 15.2692 82.7077 15.876 82.7603 16.4702C82.9154 18.2516 83.0484 20.0482 82.8462 21.8254C82.8019 22.2174 82.9293 22.4847 83.2686 22.1357C84.7713 20.5842 86.3363 19.1007 87.94 17.6559C88.7502 16.9259 89.5687 16.2043 90.3872 15.4826C91.1143 14.8426 91.8054 14.1542 92.7043 13.7552C93.3967 13.4491 94.1931 13.3286 94.9202 13.5433C95.6473 13.758 96.283 14.3412 96.4464 15.0822C96.5807 15.6917 96.3896 16.3359 96.0614 16.8664C95.6777 17.4856 95.1113 17.9787 94.6293 18.5148C94.067 19.1395 93.4563 19.724 92.8705 20.3266C91.455 21.7824 90.0299 23.2355 88.6103 24.6886C88.3943 24.8603 88.1852 25.0335 87.9705 25.1997C87.7184 25.3992 87.7267 25.5779 87.983 25.7718C88.2821 25.999 88.5674 26.2455 88.8569 26.4865C91.1559 28.4009 93.5297 30.2363 95.5489 32.4623C95.6376 32.5606 95.7151 32.6839 95.8661 32.7088C96.1888 33.0995 96.5184 33.4873 96.8356 33.8876C97.1624 34.2907 97.4172 34.7312 97.4546 35.2673C97.5433 36.6649 96.1583 37.6969 94.6196 37.3825H94.6183ZM115.535 37.2994C113.934 38.1249 112.131 37.0653 112.073 35.2673C112.073 35.1842 112.067 35.0983 112.06 35.0124C112.131 33.9375 111.944 32.8695 111.94 31.7946C111.94 30.8527 111.869 30.7973 110.905 30.7973C110.752 30.7973 110.598 30.7945 110.444 30.7917C108.976 30.7308 107.504 30.9205 106.036 30.7612C105.577 30.7086 105.112 30.7086 104.654 30.6629C104.263 30.62 104.075 30.7889 104.044 31.1643C103.979 31.9622 103.884 32.7587 103.853 33.5593C103.82 34.3697 103.669 35.1482 103.425 35.9142C103.126 36.8533 102.289 37.4877 101.332 37.5307C100.225 37.5806 99.3659 37.0625 98.9559 36.0956C98.7897 35.7022 98.6969 35.2894 98.6388 34.8642C98.6263 34.7991 98.6083 34.7312 98.6055 34.6647C98.4975 32.0107 98.6305 29.3788 99.1623 26.7677C99.7038 24.1234 100.31 21.5026 101.471 19.0425C102.176 17.5548 103.14 16.2652 104.392 15.1875C105.77 14.0018 107.664 13.5835 109.421 14.0434C111.343 14.5462 112.703 15.9854 113.724 17.6241C115.153 19.918 115.768 22.7271 116.099 25.3812C116.499 28.6017 116.829 31.8182 116.798 35.0664C116.789 36.0458 116.444 36.827 115.537 37.298L115.535 37.2994ZM134.701 26.258C133.967 27.0185 133.095 27.6584 132.215 28.1557C131.023 28.8303 129.727 29.304 128.407 29.66C127.068 30.0216 125.672 30.3332 124.276 30.2709C123.863 30.2529 123.684 30.4551 123.697 30.8624C123.74 32.3334 123.608 33.7934 123.488 35.2562C123.379 36.5763 122.666 37.3409 121.357 37.424C119.963 37.5099 119.046 36.8201 118.827 35.518C118.79 35.2991 118.766 35.0803 118.734 34.8587C118.709 34.5207 118.667 34.1813 118.657 33.8391C118.586 30.6837 118.521 27.5282 118.453 24.3714C118.416 22.5429 118.607 20.7228 118.632 18.8971C118.647 17.8014 118.697 16.714 118.937 15.646C119.093 14.9493 119.506 14.3273 120.151 14.0004C120.563 13.7913 120.924 13.8203 121.375 13.7788C121.887 13.7331 122.392 13.6361 122.902 13.571C126.876 13.0626 131.123 14.3966 134.125 17.0326C134.346 17.2265 134.56 17.426 134.771 17.631C134.832 17.6906 134.893 17.7515 134.948 17.818C135.001 17.8817 135.046 17.9496 135.093 18.0161C135.97 19.3002 136.678 20.5981 136.614 22.2035C136.553 23.7688 135.775 25.1429 134.699 26.2566L134.701 26.258ZM154.316 18.9345C152.778 19.1866 151.227 19.2697 149.669 19.2489C149.278 19.2434 149.148 19.4276 149.198 19.7905C149.487 21.8905 149.567 24.0029 149.472 26.1139C149.376 28.2291 149.447 30.3471 149.367 32.4595C149.317 33.6785 149.321 34.9099 149.087 36.1206C148.843 37.37 147.727 38.1679 146.264 38.1402C144.963 38.118 143.848 37.2163 143.657 36.0347C143.629 35.8505 143.589 35.669 143.555 35.4834C143.404 33.1895 143.367 30.8928 143.371 28.5934C143.371 28.049 143.374 27.5005 143.334 26.9589C143.155 24.5057 143.284 22.0609 143.513 19.6188C143.546 19.2738 143.452 19.1409 143.125 19.1298C142.647 19.1118 142.17 19.0896 141.693 19.0688C140.184 19.0536 138.694 18.9178 137.284 18.3305C137.081 18.2446 136.874 18.1518 136.687 18.0383C135.653 17.4163 135.278 16.2458 136.386 15.308C137.005 14.9451 137.66 14.6708 138.352 14.4672C140.089 13.9658 141.877 14.0738 143.644 14.0087C145.913 13.9256 148.188 13.9561 150.459 13.9533C151.876 13.9519 153.434 13.7871 154.769 14.3606C154.816 14.3813 154.865 14.4021 154.906 14.4326C154.945 14.4603 154.98 14.4935 155.015 14.5268C155.157 14.657 155.323 14.7595 155.473 14.8814C156.499 15.7208 156.452 17.178 155.575 18.0978C155.213 18.4801 154.732 18.6547 154.316 18.9386V18.9345ZM173.396 29.4342C173.328 30.3512 173.211 31.2627 173.011 32.1589C172.278 35.428 170.17 37.3091 166.946 38.0058C164.615 38.5114 162.396 38.2122 160.331 36.9655C158.836 36.061 157.917 34.6869 157.207 33.1452C157.164 33.0524 157.111 32.9665 157.066 32.8778C157.068 32.6714 157.013 32.4775 156.945 32.2808C156.366 30.5604 156.129 28.7707 156.021 26.97C155.905 25.0335 155.873 23.0942 155.981 21.1508C156.086 19.2919 156.483 17.5216 157.237 15.8219C157.751 14.6612 158.582 14.006 159.901 14.0641C161.557 14.4894 161.744 15.6128 161.499 17.2016C161.25 18.8001 161.348 20.3917 161.4 21.9916C161.496 24.9351 160.989 27.8288 161.607 30.7571C161.741 31.3943 161.924 32.0315 162.262 32.5883C162.689 33.2892 163.341 33.7976 164.173 33.8544C164.345 33.8669 164.511 33.9098 164.681 33.9223C165.745 33.9998 166.944 33.6369 167.547 32.7088C167.889 32.1825 168.058 31.5633 168.198 30.951C169.058 27.1805 168.958 23.2549 168.018 19.5093C167.771 18.5217 167.442 17.5479 167.525 16.5021C167.598 15.5726 168.212 14.8426 169.106 14.5808C169.789 14.3813 170.421 14.5406 171.052 14.7692C172.198 15.6349 172.429 16.9301 172.628 18.2086C172.943 20.1881 173.26 22.1744 173.426 24.1719C173.57 25.9172 173.522 27.682 173.396 29.437V29.4342ZM185.663 31.3126C185.986 31.5286 186.548 31.735 186.824 31.8472C188.27 32.4387 189.773 32.9651 191.306 33.2781C191.613 33.3405 191.925 33.3931 192.223 33.4956C192.898 33.7269 193.493 34.2395 193.735 34.9099C194.152 36.0596 193.389 37.0944 192.344 37.5113C191.649 37.7883 190.925 37.7786 190.18 37.7482C188.86 37.6928 187.561 37.5168 186.283 37.1941C184.639 36.7813 183.13 36.0679 181.711 35.1523C180.963 34.6689 180.973 34.6633 180.762 35.5028C180.485 36.6234 179.913 37.4794 178.69 37.7163C176.059 38.2274 175.087 35.9862 175.178 33.7533C175.208 33.0122 175.239 32.2697 175.269 31.5286C175.344 29.7085 175.419 27.8897 175.455 26.0682C175.498 23.8658 175.484 21.6619 175.577 19.4608C175.636 18.0646 175.358 14.9922 177.211 14.5614C178.488 14.2622 179.759 13.8868 181.086 13.8868C182.527 13.8896 183.961 14.0101 185.374 14.2844C188.795 14.9479 192.552 16.7528 193.89 20.2047C194.528 21.8517 194.519 23.7591 193.765 25.3562C193.264 26.4187 192.461 27.3163 191.558 28.0684C189.972 29.3899 188.05 30.3041 186.025 30.7003C185.248 30.8527 185.324 31.0868 185.658 31.3112L185.663 31.3126ZM214.45 36.7328C213.689 37.5667 212.695 37.841 211.633 37.9061C207.809 38.1388 203.941 38.4075 200.113 38.1263C198.428 38.003 195.931 38.7247 195.256 36.5278C195.167 36.2411 195.203 35.9516 195.197 35.6662C195.323 35.0221 195.25 34.3794 195.24 33.7297C195.16 28.4189 194.922 23.054 195.293 17.7529C195.394 16.3109 195.419 14.8731 196.912 14.229C197.947 13.7885 199.052 13.6929 200.132 13.6874C204.306 13.6624 208.486 13.5267 212.645 14.0932C213.572 14.3426 214.347 14.7678 214.621 15.7776C214.81 16.7043 214.437 17.3817 213.68 17.8859C213.511 17.9967 213.337 18.102 213.169 18.2086C210.651 18.7225 208.098 18.6893 205.555 18.6117C203.903 18.5619 202.248 18.5896 200.596 18.5563C200.482 18.5535 200.366 18.5522 200.262 18.5979C199.957 18.7336 199.956 19.1589 199.999 19.4899C200.218 21.2256 200.251 22.9848 200.099 24.7274C200.081 24.9407 200.079 25.1969 200.258 25.3147C200.356 25.3784 200.481 25.3784 200.597 25.3756C203.531 25.3188 206.508 25.2454 209.397 25.8466C209.782 25.9823 210.167 26.1209 210.505 26.3605C211.568 27.1182 211.502 28.5616 210.357 29.1835C209.35 29.732 208.249 29.944 207.116 30.0423C207.021 30.0728 206.928 30.1282 206.83 30.1351C205.755 30.203 204.684 30.2764 203.61 30.3263C202.653 30.3692 201.698 30.3914 200.741 30.3997C200.344 30.3997 200.187 30.5562 200.2 30.9482C200.215 31.4594 200.21 31.9733 200.197 32.4844C200.187 32.8072 200.313 32.9582 200.65 32.9374C201.161 32.9041 201.672 32.8543 202.183 32.857C205.92 32.8667 209.666 32.6257 213.382 33.2601C213.729 33.5621 214.145 33.7713 214.459 34.119C215.119 34.849 215.114 36 214.45 36.7328ZM188.458 24.0805C188.471 24.0611 188.482 24.0417 188.494 24.0223C188.997 23.1856 189.108 22.0789 188.619 21.2339C188.256 20.6078 187.626 20.1922 187.014 19.8071C186.734 19.6312 186.453 19.4553 186.163 19.2918C184.666 18.4427 183.002 17.9496 181.287 17.8166C180.557 17.7612 180.554 17.764 180.554 18.4968C180.557 20.2241 180.564 21.9486 180.567 23.6746C180.509 24.5279 180.635 25.3742 180.662 26.2234C180.672 26.5433 180.851 26.6638 181.158 26.6735C182.853 26.7276 184.669 26.4672 186.246 25.8189C187.129 25.456 187.953 24.8853 188.46 24.0791L188.458 24.0805ZM129.79 19.6839C129.483 19.3694 129.067 19.2434 128.68 19.0771C127.39 18.5355 126.021 18.3499 124.644 18.1809C123.834 18.0826 123.695 18.1588 123.72 18.9843C123.758 20.2615 123.837 21.5372 123.899 22.8116C123.893 23.6801 123.899 24.5514 123.871 25.4227C123.859 25.8286 124.053 25.9283 124.404 25.8937C124.965 25.8383 125.53 25.8078 126.088 25.7302C127.781 25.4989 129.336 24.9448 130.65 23.8062C132.116 22.5374 131.743 20.515 129.792 19.6839H129.79ZM108.781 19.5453C108.682 19.3362 108.63 19.0591 108.353 18.9733C108.38 18.868 108.358 18.7918 108.239 18.7669C107.846 18.1324 107.66 18.0563 107.381 18.4718C106.457 19.8362 105.847 21.3406 105.478 22.9418C105.105 23.773 105.022 24.6844 104.77 25.5502C104.649 25.9713 104.803 26.0918 105.226 26.0516C106.968 25.8854 108.716 25.8798 110.462 25.9034C110.896 25.9089 110.986 25.7621 110.89 25.3521C110.412 23.3352 109.631 21.4292 108.782 19.5453H108.781ZM110.89 25.3507C110.412 23.3338 109.631 21.4278 108.782 19.544C108.684 19.3348 108.631 19.0578 108.354 18.9719C108.382 18.8666 108.36 18.7904 108.241 18.7655C107.847 18.1311 107.662 18.0549 107.382 18.4704C106.458 19.8348 105.849 21.3392 105.479 22.9404C105.106 23.7716 105.023 24.683 104.771 25.5488C104.651 25.9699 104.805 26.0904 105.227 26.0502C106.969 25.884 108.717 25.8784 110.463 25.902C110.897 25.9075 110.987 25.7607 110.891 25.3507H110.89ZM129.79 19.6839C129.483 19.3694 129.067 19.2434 128.68 19.0771C127.39 18.5355 126.021 18.3499 124.644 18.1809C123.834 18.0826 123.695 18.1588 123.72 18.9843C123.758 20.2615 123.837 21.5372 123.899 22.8116C123.893 23.6801 123.899 24.5514 123.871 25.4227C123.859 25.8286 124.053 25.9283 124.404 25.8937C124.965 25.8383 125.53 25.8078 126.088 25.7302C127.781 25.4989 129.336 24.9448 130.65 23.8062C132.116 22.5374 131.743 20.515 129.792 19.6839H129.79ZM129.79 19.6839C129.483 19.3694 129.067 19.2434 128.68 19.0771C127.39 18.5355 126.021 18.3499 124.644 18.1809C123.834 18.0826 123.695 18.1588 123.72 18.9843C123.758 20.2615 123.837 21.5372 123.899 22.8116C123.893 23.6801 123.899 24.5514 123.871 25.4227C123.859 25.8286 124.053 25.9283 124.404 25.8937C124.965 25.8383 125.53 25.8078 126.088 25.7302C127.781 25.4989 129.336 24.9448 130.65 23.8062C132.116 22.5374 131.743 20.515 129.792 19.6839H129.79ZM110.89 25.3507C110.412 23.3338 109.631 21.4278 108.782 19.544C108.684 19.3348 108.631 19.0578 108.354 18.9719C108.382 18.8666 108.36 18.7904 108.241 18.7655C107.847 18.1311 107.662 18.0549 107.382 18.4704C106.458 19.8348 105.849 21.3392 105.479 22.9404C105.106 23.7716 105.023 24.683 104.771 25.5488C104.651 25.9699 104.805 26.0904 105.227 26.0502C106.969 25.884 108.717 25.8784 110.463 25.902C110.897 25.9075 110.987 25.7607 110.891 25.3507H110.89ZM110.89 25.3507C110.412 23.3338 109.631 21.4278 108.782 19.544C108.684 19.3348 108.631 19.0578 108.354 18.9719C108.382 18.8666 108.36 18.7904 108.241 18.7655C107.847 18.1311 107.662 18.0549 107.382 18.4704C106.458 19.8348 105.849 21.3392 105.479 22.9404C105.106 23.7716 105.023 24.683 104.771 25.5488C104.651 25.9699 104.805 26.0904 105.227 26.0502C106.969 25.884 108.717 25.8784 110.463 25.902C110.897 25.9075 110.987 25.7607 110.891 25.3507H110.89ZM129.79 19.6839C129.483 19.3694 129.067 19.2434 128.68 19.0771C127.39 18.5355 126.021 18.3499 124.644 18.1809C123.834 18.0826 123.695 18.1588 123.72 18.9843C123.758 20.2615 123.837 21.5372 123.899 22.8116C123.893 23.6801 123.899 24.5514 123.871 25.4227C123.859 25.8286 124.053 25.9283 124.404 25.8937C124.965 25.8383 125.53 25.8078 126.088 25.7302C127.781 25.4989 129.336 24.9448 130.65 23.8062C132.116 22.5374 131.743 20.515 129.792 19.6839H129.79ZM129.815 19.6395C128.214 18.7156 126.457 18.4039 124.644 18.1809C123.834 18.0826 123.695 18.1588 123.72 18.9843C123.758 20.2615 123.837 21.5372 123.899 22.8116C123.893 23.6801 123.899 24.5514 123.871 25.4227C123.859 25.8286 124.053 25.9283 124.404 25.8937C124.965 25.8383 125.53 25.8078 126.088 25.7302C127.781 25.4989 129.336 24.9448 130.65 23.8062C131.289 23.2521 131.667 22.4335 131.504 21.5843C131.34 20.7352 130.616 20.1091 129.882 19.6769C129.86 19.6645 129.839 19.652 129.817 19.6395H129.815ZM110.89 25.3507C110.437 23.4045 109.668 21.5539 108.872 19.7282C108.779 19.5163 108.685 19.3015 108.547 19.1159C108.281 18.7586 107.802 17.8457 107.381 18.4704C106.457 19.8348 105.847 21.3392 105.478 22.9404C105.105 23.7716 105.022 24.683 104.77 25.5488C104.649 25.9699 104.803 26.0904 105.226 26.0502C106.968 25.884 108.716 25.8784 110.462 25.902C110.896 25.9075 110.986 25.7607 110.89 25.3507Z" fill="white"/>
</svg>
