<svg width="39" height="39" viewBox="0 0 39 39" fill="none" xmlns="http://www.w3.org/2000/svg">
<path d="M19.0752 0.0231934C8.58178 0.0231934 0.0751953 8.52978 0.0751953 19.0232C0.0751953 29.5166 8.58178 38.0232 19.0752 38.0232C29.5686 38.0232 38.0752 29.5166 38.0752 19.0232C38.0752 8.52978 29.5686 0.0231934 19.0752 0.0231934ZM28.6954 17.2703C26.6779 17.2703 24.7148 16.6155 23.2032 15.5076L23.1912 23.0408C23.19 24.4367 22.763 25.799 21.9674 26.9459C21.1718 28.0928 20.0453 28.9698 18.7383 29.4599C17.4313 29.9499 16.0059 30.0298 14.6524 29.6887C13.2988 29.3476 12.0815 28.6018 11.1628 27.5508C10.2441 26.4999 9.66778 25.1938 9.51072 23.8068C9.35365 22.4198 9.62331 21.0179 10.2837 19.7881C10.9441 18.5583 11.9639 17.5592 13.2069 16.9241C14.4499 16.289 15.857 16.048 17.2405 16.2334V19.9328C16.5879 19.74 15.8911 19.7576 15.249 19.983C14.607 20.2085 14.0522 20.6304 13.6633 21.1889C13.2745 21.7473 13.0714 22.4141 13.0828 23.0945C13.0942 23.7749 13.3195 24.4344 13.7268 24.9796C14.1341 25.5247 14.7028 25.9278 15.352 26.1316C16.0013 26.3355 16.6982 26.3297 17.3441 26.1151C17.9899 25.9006 18.5517 25.4882 18.9499 24.9363C19.3482 24.3845 19.5625 23.7213 19.5627 23.0408V8.13775H23.3682C23.3682 8.8373 23.506 9.52999 23.7737 10.1763C24.0414 10.8226 24.4338 11.4098 24.9285 11.9045C25.4231 12.3991 26.0104 12.7915 26.6567 13.0592C27.303 13.3269 27.9957 13.4647 28.6952 13.4647L28.6954 17.2703Z" fill="white"/>
</svg>
