<svg width="39" height="39" viewBox="0 0 39 39" fill="none" xmlns="http://www.w3.org/2000/svg">
<path fill-rule="evenodd" clip-rule="evenodd" d="M19.0752 0.0231934C29.5616 0.0231934 38.0752 8.53683 38.0752 19.0232C38.0752 29.5096 29.5616 38.0232 19.0752 38.0232C8.58883 38.0232 0.0751953 29.5096 0.0751953 19.0232C0.0751953 8.53683 8.58883 0.0231934 19.0752 0.0231934ZM30.454 13.3067C30.1809 12.2848 29.3762 11.4802 28.3544 11.2071C26.502 10.7107 19.0752 10.7107 19.0752 10.7107C19.0752 10.7107 11.6483 10.7107 9.796 11.2071C8.77437 11.4802 7.96947 12.2848 7.69635 13.3067C7.2002 15.1588 7.2002 19.0233 7.2002 19.0233C7.2002 19.0233 7.2002 22.8877 7.69635 24.7397C7.96947 25.7616 8.77437 26.5665 9.796 26.8395C11.6483 27.3357 19.0752 27.3357 19.0752 27.3357C19.0752 27.3357 26.502 27.3357 28.3544 26.8395C29.3762 26.5665 30.1809 25.7616 30.454 24.7397C30.9502 22.8877 30.9502 19.0233 30.9502 19.0233C30.9502 19.0233 30.9502 15.1588 30.454 13.3067ZM16.7001 22.5859V15.4608L22.8704 19.0233L16.7001 22.5859Z" fill="white"/>
</svg>
