<svg width="39" height="39" viewBox="0 0 39 39" fill="none" xmlns="http://www.w3.org/2000/svg">
<g clip-path="url(#clip0_397_289)">
<path fill-rule="evenodd" clip-rule="evenodd" d="M19.5725 0.465332C30.0589 0.465332 38.5725 8.97897 38.5725 19.4653C38.5725 29.9517 30.0589 38.4653 19.5725 38.4653C9.08614 38.4653 0.57251 29.9517 0.57251 19.4653C0.57251 8.97897 9.08614 0.465332 19.5725 0.465332ZM19.5725 7.59033C16.3475 7.59033 15.9431 7.60399 14.6764 7.6618C13.4125 7.71947 12.5493 7.92023 11.7939 8.21377C11.013 8.51725 10.3508 8.9233 9.69058 9.58348C9.0304 10.2437 8.62435 10.9059 8.32087 11.6868C8.02734 12.4421 7.82665 13.3053 7.76891 14.5693C7.71117 15.8359 7.69751 16.2403 7.69751 19.4653C7.69751 22.6904 7.71117 23.0948 7.76891 24.3614C7.82665 25.6253 8.02734 26.4886 8.32087 27.2439C8.62435 28.0248 9.0304 28.687 9.69058 29.3473C10.3508 30.0074 11.013 30.4135 11.7939 30.717C12.5493 31.0104 13.4125 31.2112 14.6764 31.2689C15.9431 31.3267 16.3475 31.3403 19.5725 31.3403C22.7975 31.3403 23.202 31.3267 24.4686 31.2689C25.7325 31.2112 26.5958 31.0104 27.3511 30.717C28.1319 30.4135 28.7942 30.0074 29.4544 29.3473C30.1146 28.687 30.5207 28.0248 30.8241 27.2439C31.1176 26.4886 31.3184 25.6253 31.376 24.3614C31.4339 23.0948 31.4475 22.6904 31.4475 19.4653C31.4475 16.2403 31.4339 15.8359 31.376 14.5693C31.3184 13.3053 31.1176 12.4421 30.8241 11.6868C30.5207 10.9059 30.1146 10.2437 29.4544 9.58348C28.7942 8.9233 28.1319 8.51725 27.3511 8.21377C26.5958 7.92023 25.7325 7.71947 24.4686 7.6618C23.202 7.60399 22.7975 7.59033 19.5725 7.59033ZM19.5725 9.72998C22.7433 9.72998 23.1188 9.74208 24.371 9.79923C25.5289 9.85207 26.1576 10.0455 26.576 10.2081C27.1304 10.4235 27.5259 10.6809 27.9414 11.0964C28.357 11.5119 28.6144 11.9076 28.8297 12.4618C28.9924 12.8803 29.1858 13.509 29.2386 14.6668C29.2958 15.919 29.3079 16.2946 29.3079 19.4653C29.3079 22.6361 29.2958 23.0117 29.2386 24.2639C29.1858 25.4217 28.9924 26.0504 28.8297 26.4688C28.6144 27.0232 28.357 27.4188 27.9414 27.8342C27.5259 28.2499 27.1304 28.5072 26.576 28.7226C26.1576 28.8852 25.5289 29.0787 24.371 29.1314C23.1191 29.1886 22.7435 29.2007 19.5725 29.2007C16.4015 29.2007 16.026 29.1886 14.774 29.1314C13.6162 29.0787 12.9875 28.8852 12.569 28.7226C12.0147 28.5072 11.6191 28.2499 11.2035 27.8342C10.788 27.4188 10.5307 27.0232 10.3153 26.4688C10.1527 26.0504 9.95918 25.4217 9.90633 24.2639C9.84919 23.0117 9.83716 22.6361 9.83716 19.4653C9.83716 16.2946 9.84919 15.919 9.90633 14.6668C9.95918 13.509 10.1527 12.8803 10.3153 12.4618C10.5307 11.9076 10.788 11.5119 11.2035 11.0964C11.6191 10.6809 12.0147 10.4235 12.569 10.2081C12.9875 10.0455 13.6162 9.85207 14.774 9.79923C16.0262 9.74208 16.4017 9.72998 19.5725 9.72998ZM19.5725 13.3674C16.2047 13.3674 13.4745 16.0975 13.4745 19.4653C13.4745 22.8332 16.2047 25.5633 19.5725 25.5633C22.9403 25.5633 25.6705 22.8332 25.6705 19.4653C25.6705 16.0975 22.9403 13.3674 19.5725 13.3674ZM19.5725 23.4236C17.3864 23.4236 15.6142 21.6514 15.6142 19.4653C15.6142 17.2792 17.3864 15.507 19.5725 15.507C21.7586 15.507 23.5308 17.2792 23.5308 19.4653C23.5308 21.6514 21.7586 23.4236 19.5725 23.4236ZM27.3365 13.1265C27.3365 13.9135 26.6984 14.5514 25.9114 14.5514C25.1244 14.5514 24.4865 13.9135 24.4865 13.1265C24.4865 12.3394 25.1244 11.7015 25.9114 11.7015C26.6984 11.7015 27.3365 12.3394 27.3365 13.1265Z" fill="black"/>
</g>
<defs>
<clipPath id="clip0_397_289">
<rect width="38" height="38" fill="white" transform="translate(0.57251 0.465332)"/>
</clipPath>
</defs>
</svg>
