<svg width="99" height="99" viewBox="0 0 99 99" fill="none" xmlns="http://www.w3.org/2000/svg">
<path d="M58.9206 33.7402C58.9342 34.3537 57.3391 34.5271 55.7454 35.7585C54.1911 36.9549 53.3988 38.1761 53.2101 38.6075C51.8565 41.6692 52.8766 41.6619 51.4626 42.6674C51.1381 42.8962 50.5556 43.1279 49.4615 42.9166C49.4615 42.9166 27.1901 37.4781 20.0807 35.9582C19.0032 35.7279 17.9846 36.525 17.9921 37.5918C18.0314 42.9429 18.1672 48.2925 18.2578 53.6421C18.3166 57.1367 18.2985 60.637 18.3996 64.1316C18.4947 67.4687 18.128 70.6179 19.0983 73.9099C19.8167 76.3464 20.9923 78.63 21.9158 81.0009C22.6523 82.8896 23.2303 84.835 23.6438 86.8125C23.8792 87.939 24.0437 89.1748 23.4702 90.1818C22.8349 91.2951 21.4208 91.8226 20.1034 91.7935C16.2356 91.7075 11.7686 89.4313 8.14222 88.1897C7.19148 87.8647 5.57976 86.9335 4.82219 85.96C3.8458 84.7243 3.29346 83.2058 3.28894 81.6072L3.7145 11.7427C3.7145 10.2024 3.32063 8.68388 2.5706 7.32716L0.266197 3.16519C-0.521556 1.7531 0.53331 0.0349738 2.19333 0.0174865L3.71299 0H12.407C15.6908 0 18.3513 2.57063 18.3513 5.74019V20.2969C18.3513 21.1304 19.1843 21.7265 20.0083 21.4816C25.5603 19.8349 38.4843 16.0052 42.4291 14.8117C45.639 13.8368 55.7137 16.8752 58.1494 17.6403C58.5931 17.7787 59.2617 18.6283 58.5041 18.8702C53.1679 20.5737 29.493 28.8977 29.493 28.8977C28.6751 29.1716 28.5921 28.3716 29.4493 28.478C37.7509 29.4952 51.6361 31.2045 56.8667 32.5715C57.2561 32.6735 58.9085 33.1136 58.9161 33.7387L58.9206 33.7402Z" fill="#E55A94"/>
<path d="M95.7125 26.6986C95.6778 28.8845 95.634 32.8643 95.5858 35.6608C95.5465 37.9487 93.0852 39.5998 91.4025 37.9881C89.0242 35.7074 83.3363 33.5827 80.2548 33.5827C71.9879 33.5827 59.5619 43.7793 60.7345 61.7081C61.978 80.7386 73.9105 81.8184 81.7141 78.1811C89.6172 74.4971 89.9145 69.5176 92.5932 64.9155C93.1274 63.9975 95.5073 63.2251 96.5606 63.5005C98.9209 64.1155 98.4621 71.8011 98.441 73.0223C98.441 74.6865 98.1875 75.8392 96.7523 77.2848C95.124 78.9257 92.6973 80.1528 90.7808 81.4454C88.0689 83.2757 85.3419 85.0871 82.6029 86.8795C79.3765 88.9911 76.1304 91.0765 72.8662 93.1341C69.9551 94.9703 66.9807 97.3879 63.6003 98.322C57.6167 99.976 51.1441 98.2317 45.2511 97.0367C43.9442 96.7613 42.5498 96.3999 41.6986 95.4031C40.7509 94.2941 40.7464 92.6576 41.2459 91.3038C41.7454 89.95 42.6705 88.7885 43.4824 87.5834C47.6596 81.39 47.6883 75.182 47.7275 68.1113C47.7652 61.2461 47.6536 54.3838 47.8241 47.5186C47.8739 47.0057 47.9237 46.4956 47.9735 45.9827L48.0625 45.4493C48.1093 45.1724 48.1455 44.8912 48.1712 44.6114C48.3206 42.9268 48.4413 42.4634 49.1219 40.6928C49.3528 40.0924 50.3141 37.9429 52.1975 36.1461C52.9113 35.4641 53.9163 34.6888 57.4069 33.2111C60.4523 31.9229 61.1797 31.8821 66.5023 30.0139C69.3243 29.0229 71.7902 28.0917 73.2676 27.5424C74.3828 27.127 75.6565 26.6418 77.5021 25.9248C80.4706 24.7721 83.4375 23.6077 86.3772 22.3953C89.0921 21.2309 93.8956 18.8818 95.3141 22.6998L95.3428 22.7756C95.7427 23.9662 95.7261 25.3972 95.714 26.6971L95.7125 26.6986Z" fill="#3E9DA2"/>
</svg>
