<svg width="477" height="73" viewBox="0 0 477 73" fill="none" xmlns="http://www.w3.org/2000/svg">
<path d="M472.87 13.976C475.38 15.4251 476.381 17.5936 476.316 20.3602C476.086 30.5254 477.287 40.659 476.935 50.819C476.788 55.1217 476.572 62.8234 470.889 63.7113C468.355 64.1065 466.377 63.0342 464.828 61.2767C461.246 57.2111 458.264 52.7135 455.05 48.3844C452.647 45.1435 450.336 41.8368 447.984 38.5617C447.755 38.2429 447.57 37.7871 447.046 37.961C446.588 38.1138 446.713 38.5459 446.708 38.899C446.618 45.3438 446.326 51.786 446.419 58.2361C446.459 61.087 444.948 62.9156 442.182 63.6823C439.62 64.3937 436.848 63.4663 435.503 61.4532C434.871 60.5047 434.682 59.4455 434.644 58.3467C434.404 51.4672 434.355 44.5797 434.423 37.6975C434.459 34.2142 434.521 30.7283 434.606 27.245C434.682 24.1122 434.45 20.7976 435.201 17.7438C435.569 16.2498 436.382 14.8007 437.711 13.9602C439.896 12.5821 442.828 12.9484 444.804 14.474C445.562 15.0589 446.258 15.736 446.915 16.4316C453.094 22.9819 457.44 30.6493 462.356 38.0611C462.525 38.3167 462.645 38.7751 463.046 38.6697C463.521 38.5459 463.316 38.069 463.355 37.7317C463.371 37.5894 463.355 37.4419 463.357 37.297C463.379 31.6426 463.395 25.9909 463.428 20.3365C463.447 16.7953 464.937 14.6426 467.913 13.6677C469.629 13.1065 471.244 13.4464 472.867 13.9733L472.87 13.976Z" fill="#040404"/>
<path d="M431.283 49.0327C429.864 51.9705 428.11 54.6713 425.641 56.9372C419.907 62.199 413.136 64.1303 405.284 63.4743C395.035 62.6179 388.324 57.1612 383.618 48.8324C383.16 48.0183 382.693 47.2067 382.232 46.3952C382.368 45.6364 381.924 44.9961 381.782 44.2926C379.987 35.3974 382.186 27.5561 388.659 20.961C396.424 13.0539 408.727 10.7273 418.977 15.3146C425.049 18.0311 430.189 22.8318 432.38 29.0316C434.633 35.4158 434.235 42.9146 431.28 49.0353L431.283 49.0327ZM418.292 29.1739C416 25.9857 412.74 23.4325 408.714 22.924C403.792 22.3022 398.737 24.5734 395.785 28.3702C395.45 28.7997 395.144 29.2503 394.866 29.714C393.027 32.7889 392.348 36.4513 392.708 39.9873C393.106 43.8947 394.798 47.7311 397.717 50.4634C400.636 53.1984 404.815 54.7345 408.847 54.2207C411.826 53.8413 414.59 52.3895 416.797 50.4213C418.985 48.4662 420.682 45.9605 421.446 43.1754C422.313 40.011 421.939 36.591 420.701 33.5424C420.092 32.0432 419.285 30.5493 418.295 29.1739H418.292Z" fill="#040404"/>
<path d="M376.304 49.2303C376.808 49.5413 377.329 49.8258 377.812 50.1631C380.415 51.989 380.538 55.2984 378.096 57.3404C374.138 60.6498 369.44 62.4388 364.338 63.1213C356.465 64.1699 349.075 62.6575 342.334 58.5498C338.566 56.2548 335.726 53.1088 333.639 49.3252C333.184 48.5005 332.742 47.6652 332.294 46.8379C332.368 46.419 332.141 46.0606 332.024 45.6838C329.359 37.1074 331.072 29.3162 337.475 22.9504C346.106 14.3714 358.023 11.8366 369.835 14.8667C371.519 15.2988 373.177 15.8258 374.768 16.5161C378.617 18.1866 386.886 23.7936 381.108 28.0119C380.145 28.7154 379.013 28.9473 377.894 29.2371C375.717 29.1344 373.821 28.3176 372.075 27.1214C368.703 24.8106 364.958 23.451 360.808 23.6223C356.334 23.8094 351.827 24.9819 348.363 27.8328C344.426 31.0736 341.878 36.0983 342.947 41.1335C344.082 46.4954 348.802 50.0867 354.012 51.5912C359.3 53.1167 364.466 52.2393 369.421 50.1842C371.669 49.2541 373.887 48.7192 376.306 49.2303H376.304Z" fill="#040404"/>
<path d="M98.432 35.2208C97.4908 31.3845 95.9522 27.7589 94.2798 24.1755C94.0862 23.7777 93.9825 23.2507 93.4369 23.0873C93.4914 22.8871 93.4478 22.7422 93.2132 22.6947C92.4384 21.488 92.0728 21.3431 91.5218 22.1335C89.7021 24.7288 88.5018 27.5903 87.7734 30.6362C87.0395 32.2171 86.8758 33.9508 86.3793 35.5976C86.142 36.3986 86.4448 36.6278 87.2769 36.5514C90.7088 36.2352 94.1516 36.2247 97.5917 36.2695C98.4456 36.28 98.623 36.0007 98.4347 35.2208H98.432ZM98.432 35.2208C97.4908 31.3845 95.9522 27.7589 94.2798 24.1755C94.0862 23.7777 93.9825 23.2507 93.4369 23.0873C93.4914 22.8871 93.4478 22.7422 93.2132 22.6947C92.4384 21.488 92.0728 21.3431 91.5218 22.1335C89.7021 24.7288 88.5018 27.5903 87.7734 30.6362C87.0395 32.2171 86.8758 33.9508 86.3793 35.5976C86.142 36.3986 86.4448 36.6278 87.2769 36.5514C90.7088 36.2352 94.1516 36.2247 97.5917 36.2695C98.4456 36.28 98.623 36.0007 98.4347 35.2208H98.432ZM98.432 35.2208C97.4908 31.3845 95.9522 27.7589 94.2798 24.1755C94.0862 23.7777 93.9825 23.2507 93.4369 23.0873C93.4914 22.8871 93.4478 22.7422 93.2132 22.6947C92.4384 21.488 92.0728 21.3431 91.5218 22.1335C89.7021 24.7288 88.5018 27.5903 87.7734 30.6362C87.0395 32.2171 86.8758 33.9508 86.3793 35.5976C86.142 36.3986 86.4448 36.6278 87.2769 36.5514C90.7088 36.2352 94.1516 36.2247 97.5917 36.2695C98.4456 36.28 98.623 36.0007 98.4347 35.2208H98.432ZM135.662 24.4417C135.057 23.8435 134.238 23.6038 133.474 23.2876C130.934 22.2574 128.236 21.9043 125.525 21.5828C123.929 21.3958 123.656 21.5407 123.705 23.111C123.779 25.5404 123.934 27.9671 124.057 30.3911C124.046 32.0432 124.057 33.7005 124.002 35.3578C123.978 36.1298 124.36 36.3195 125.053 36.2537C126.158 36.1483 127.271 36.0903 128.37 35.9427C131.704 35.5027 134.767 34.4488 137.356 32.2829C140.243 29.8694 139.509 26.0226 135.665 24.4417H135.662ZM135.662 24.4417C135.057 23.8435 134.238 23.6038 133.474 23.2876C130.934 22.2574 128.236 21.9043 125.525 21.5828C123.929 21.3958 123.656 21.5407 123.705 23.111C123.779 25.5404 123.934 27.9671 124.057 30.3911C124.046 32.0432 124.057 33.7005 124.002 35.3578C123.978 36.1298 124.36 36.3195 125.053 36.2537C126.158 36.1483 127.271 36.0903 128.37 35.9427C131.704 35.5027 134.767 34.4488 137.356 32.2829C140.243 29.8694 139.509 26.0226 135.665 24.4417H135.662ZM98.432 35.2208C97.4908 31.3845 95.9522 27.7589 94.2798 24.1755C94.0862 23.7777 93.9825 23.2507 93.4369 23.0873C93.4914 22.8871 93.4478 22.7422 93.2132 22.6947C92.4384 21.488 92.0728 21.3431 91.5218 22.1335C89.7021 24.7288 88.5018 27.5903 87.7734 30.6362C87.0395 32.2171 86.8758 33.9508 86.3793 35.5976C86.142 36.3986 86.4448 36.6278 87.2769 36.5514C90.7088 36.2352 94.1516 36.2247 97.5917 36.2695C98.4456 36.28 98.623 36.0007 98.4347 35.2208H98.432ZM98.432 35.2208C97.4908 31.3845 95.9522 27.7589 94.2798 24.1755C94.0862 23.7777 93.9825 23.2507 93.4369 23.0873C93.4914 22.8871 93.4478 22.7422 93.2132 22.6947C92.4384 21.488 92.0728 21.3431 91.5218 22.1335C89.7021 24.7288 88.5018 27.5903 87.7734 30.6362C87.0395 32.2171 86.8758 33.9508 86.3793 35.5976C86.142 36.3986 86.4448 36.6278 87.2769 36.5514C90.7088 36.2352 94.1516 36.2247 97.5917 36.2695C98.4456 36.28 98.623 36.0007 98.4347 35.2208H98.432ZM135.662 24.4417C135.057 23.8435 134.238 23.6038 133.474 23.2876C130.934 22.2574 128.236 21.9043 125.525 21.5828C123.929 21.3958 123.656 21.5407 123.705 23.111C123.779 25.5404 123.934 27.9671 124.057 30.3911C124.046 32.0432 124.057 33.7005 124.002 35.3578C123.978 36.1298 124.36 36.3195 125.053 36.2537C126.158 36.1483 127.271 36.0903 128.37 35.9427C131.704 35.5027 134.767 34.4488 137.356 32.2829C140.243 29.8694 139.509 26.0226 135.665 24.4417H135.662ZM249.219 25.3138C249.145 25.2848 249.025 25.3559 248.927 25.377C248.872 24.9265 248.49 24.7631 248.157 24.5444C244.799 22.3944 241.111 21.1876 237.098 20.8899C235.66 20.7845 235.655 20.7898 235.655 22.1836C235.66 25.4692 235.674 28.7496 235.679 32.0326C235.565 33.6557 235.813 35.2656 235.867 36.8808C235.887 37.4894 236.238 37.7186 236.844 37.7371C240.077 37.8372 243.228 37.4551 246.248 36.2958C248.217 35.5343 249.963 34.4751 251.281 32.8336C253.142 30.5018 252.026 26.3967 249.219 25.3085V25.3138ZM249.219 25.3138C249.145 25.2848 249.025 25.3559 248.927 25.377C248.872 24.9265 248.49 24.7631 248.157 24.5444C244.799 22.3944 241.111 21.1876 237.098 20.8899C235.66 20.7845 235.655 20.7898 235.655 22.1836C235.66 25.4692 235.674 28.7496 235.679 32.0326C235.565 33.6557 235.813 35.2656 235.867 36.8808C235.887 37.4894 236.238 37.7186 236.844 37.7371C240.077 37.8372 243.228 37.4551 246.248 36.2958C248.217 35.5343 249.963 34.4751 251.281 32.8336C253.142 30.5018 252.026 26.3967 249.219 25.3085V25.3138ZM135.662 24.4417C135.057 23.8435 134.238 23.6038 133.474 23.2876C130.934 22.2574 128.236 21.9043 125.525 21.5828C123.929 21.3958 123.656 21.5407 123.705 23.111C123.779 25.5404 123.934 27.9671 124.057 30.3911C124.046 32.0432 124.057 33.7005 124.002 35.3578C123.978 36.1298 124.36 36.3195 125.053 36.2537C126.158 36.1483 127.271 36.0903 128.37 35.9427C131.704 35.5027 134.767 34.4488 137.356 32.2829C140.243 29.8694 139.509 26.0226 135.665 24.4417H135.662ZM98.432 35.2208C97.4908 31.3845 95.9522 27.7589 94.2798 24.1755C94.0862 23.7777 93.9825 23.2507 93.4369 23.0873C93.4914 22.8871 93.4478 22.7422 93.2132 22.6947C92.4384 21.488 92.0728 21.3431 91.5218 22.1335C89.7021 24.7288 88.5018 27.5903 87.7734 30.6362C87.0395 32.2171 86.8758 33.9508 86.3793 35.5976C86.142 36.3986 86.4448 36.6278 87.2769 36.5514C90.7088 36.2352 94.1516 36.2247 97.5917 36.2695C98.4456 36.28 98.623 36.0007 98.4347 35.2208H98.432ZM289.881 0.359161H37.5793C27.2399 0.359161 17.8907 4.40629 11.1196 10.946C4.34581 17.4804 0.158203 26.5179 0.158203 36.4961C0.158203 56.4603 16.9114 72.6409 37.5821 72.6409H289.883C300.215 72.6409 309.572 68.5937 316.338 62.0541C323.112 55.5117 327.299 46.4821 327.299 36.4987C327.299 16.5397 310.546 0.359161 289.881 0.359161ZM66.3797 58.1071C64.3937 57.7171 62.8414 56.4102 61.3109 55.2166C59.6195 53.8966 57.9663 52.5265 56.3567 51.1115C53.1403 48.2817 50.0958 45.2648 47.2477 42.0872C46.7075 41.4838 46.0091 40.8225 45.1607 41.2414C43.6521 41.9897 42.6536 42.4824 42.509 44.2241C42.2744 47.0565 42.0152 49.8916 41.7506 52.7241C41.6387 53.9124 41.5132 55.1455 40.8776 56.1678C39.8546 57.8067 37.6912 58.526 35.7161 58.3653C34.5484 58.2704 33.3726 57.8963 32.5133 57.1243C31.7358 56.4287 31.2693 55.4564 31.0265 54.4578C30.7837 53.4592 30.7509 52.429 30.7209 51.404C30.5245 44.4902 30.77 37.5895 30.6936 30.6783C30.6527 26.9263 30.5245 23.1585 30.9883 19.4328C31.1929 17.7992 31.523 16.1366 32.3141 14.6637C33.0971 13.2067 34.4366 12.3978 36.0898 12.0421C38.5696 11.5098 41.2841 12.764 42.3262 15.0089C42.8063 16.0444 42.9182 17.1985 43.0219 18.3288C43.3274 21.7172 43.5893 25.1346 43.191 28.5151C43.1037 29.2608 43.3547 29.7693 44.0231 29.1053C46.983 26.1543 50.0658 23.3324 53.2249 20.5842C54.8208 19.1957 56.4331 17.8229 58.0454 16.4502C59.4777 15.2329 60.839 13.9233 62.6095 13.1645C63.9736 12.5822 65.5422 12.353 66.9744 12.7614C68.4067 13.1698 69.6589 14.2791 69.9808 15.6887C70.2454 16.848 69.8689 18.0732 69.2224 19.0824C68.4667 20.2602 67.3509 21.1982 66.4016 22.2178C65.294 23.4062 64.0909 24.5181 62.9369 25.6642C60.1488 28.4334 57.3416 31.1974 54.5453 33.9613C54.1197 34.2881 53.7078 34.6174 53.2849 34.9336C52.7884 35.313 52.8048 35.6529 53.3095 36.0218C53.8987 36.4539 54.4607 36.9229 55.0309 37.3814C59.5595 41.0227 64.2355 44.5139 68.213 48.7481C68.3876 48.9352 68.5404 49.1697 68.8377 49.2171C69.4734 49.9601 70.1227 50.6979 70.7474 51.4594C71.3912 52.2261 71.8932 53.064 71.9668 54.0836C72.1414 56.7422 69.4134 58.7052 66.3825 58.1071H66.3797ZM107.582 57.949C104.428 59.5193 100.876 57.5037 100.762 54.0836C100.762 53.9256 100.751 53.7622 100.737 53.5988C100.876 51.5542 100.508 49.5227 100.5 47.4781C100.5 45.6864 100.361 45.581 98.462 45.581C98.1592 45.581 97.8564 45.5757 97.5536 45.5705C94.6618 45.4545 91.7618 45.8155 88.8701 45.5125C87.9671 45.4124 87.0504 45.4124 86.1474 45.3254C85.3781 45.2437 85.0071 45.5652 84.9471 46.2792C84.8188 47.7969 84.6306 49.312 84.5706 50.8349C84.5051 52.3763 84.2078 53.8571 83.7276 55.3141C83.1383 57.1006 81.4906 58.3073 79.6055 58.389C77.423 58.4838 75.7316 57.4984 74.9241 55.6593C74.5967 54.911 74.4139 54.1258 74.2994 53.3169C74.2748 53.1931 74.2393 53.064 74.2339 52.9375C74.0211 47.8891 74.283 42.8829 75.3306 37.9162C76.3972 32.8863 77.5921 27.9012 79.8783 23.2217C81.2669 20.3919 83.1656 17.9388 85.6318 15.8889C88.3463 13.6335 92.0783 12.8378 95.5375 13.7126C99.3241 14.669 102.003 17.4066 104.014 20.5236C106.829 24.8869 108.04 30.2304 108.692 35.2788C109.481 41.4048 110.13 47.5229 110.07 53.7016C110.051 55.5644 109.372 57.0505 107.585 57.9463L107.582 57.949ZM145.336 36.9466C143.89 38.3932 142.171 39.6105 140.439 40.5564C138.09 41.8395 135.537 42.7406 132.937 43.4178C130.299 44.1055 127.549 44.6983 124.799 44.5798C123.986 44.5455 123.634 44.9302 123.659 45.7048C123.743 48.503 123.484 51.2802 123.247 54.0626C123.034 56.5736 121.629 58.028 119.051 58.1861C116.304 58.3495 114.498 57.0373 114.067 54.5606C113.993 54.1442 113.947 53.728 113.884 53.3064C113.835 52.6635 113.75 52.0179 113.731 51.3671C113.592 45.3649 113.464 39.3628 113.33 33.358C113.256 29.88 113.633 26.4178 113.682 22.9451C113.712 20.8609 113.81 18.7925 114.282 16.7611C114.59 15.4357 115.403 14.2527 116.675 13.6309C117.485 13.233 118.197 13.2884 119.086 13.2093C120.093 13.1224 121.089 12.9379 122.093 12.8141C129.922 11.8471 138.287 14.3844 144.201 19.3986C144.635 19.7674 145.058 20.1469 145.472 20.5368C145.592 20.6501 145.712 20.766 145.822 20.8925C145.925 21.0137 146.015 21.1428 146.108 21.2693C147.835 23.7118 149.229 26.1806 149.103 29.2344C148.983 32.2118 147.45 34.8256 145.33 36.944L145.336 36.9466ZM183.974 23.0162C180.943 23.4957 177.887 23.6538 174.818 23.6143C174.049 23.6038 173.793 23.9542 173.891 24.6445C174.461 28.639 174.619 32.6571 174.431 36.6726C174.243 40.696 174.382 44.7247 174.224 48.7428C174.125 51.0615 174.134 53.4039 173.673 55.7067C173.192 58.0834 170.994 59.601 168.113 59.5483C165.548 59.5062 163.352 57.7909 162.976 55.5434C162.921 55.1929 162.842 54.8478 162.777 54.4947C162.479 50.1314 162.406 45.7628 162.414 41.389C162.414 40.3535 162.419 39.3101 162.34 38.2799C161.988 33.6135 162.242 28.963 162.692 24.3178C162.757 23.6617 162.572 23.4088 161.928 23.3877C160.987 23.3535 160.049 23.3113 159.107 23.2718C156.136 23.2428 153.201 22.9846 150.424 21.8674C150.023 21.704 149.616 21.5275 149.248 21.3115C147.21 20.1284 146.471 17.902 148.653 16.1182C149.873 15.4278 151.163 14.9061 152.527 14.5188C155.948 13.565 159.47 13.7705 162.951 13.6467C167.42 13.4886 171.902 13.5466 176.376 13.5413C179.167 13.5387 182.236 13.2251 184.866 14.3159C184.959 14.3555 185.054 14.395 185.136 14.453C185.212 14.5056 185.281 14.5689 185.349 14.6321C185.63 14.8798 185.957 15.0748 186.252 15.3066C188.273 16.9034 188.181 19.6752 186.454 21.4247C185.739 22.152 184.792 22.484 183.974 23.0241V23.0162ZM221.556 42.9883C221.422 44.7326 221.193 46.4663 220.798 48.1711C219.354 54.3893 215.202 57.9674 208.851 59.2927C204.26 60.2545 199.889 59.6853 195.822 57.314C192.876 55.5934 191.067 52.9796 189.667 50.0471C189.583 49.8705 189.479 49.7072 189.389 49.5385C189.395 49.1459 189.285 48.7771 189.152 48.4029C188.011 45.1304 187.545 41.7262 187.332 38.3009C187.103 34.6174 187.04 30.9286 187.253 27.232C187.46 23.696 188.241 20.3287 189.727 17.0957C190.739 14.8877 192.376 13.6414 194.973 13.7521C198.236 14.561 198.605 16.6978 198.122 19.72C197.631 22.7606 197.824 25.7881 197.928 28.8313C198.116 34.4303 197.118 39.9345 198.334 45.5046C198.599 46.7166 198.959 47.9287 199.625 48.9879C200.465 50.3211 201.75 51.2881 203.39 51.3961C203.728 51.4198 204.055 51.5015 204.391 51.5252C206.486 51.6728 208.848 50.9824 210.035 49.2171C210.709 48.2159 211.042 47.0381 211.317 45.8735C213.012 38.7014 212.815 31.2343 210.963 24.1097C210.477 22.231 209.828 20.3787 209.992 18.3894C210.136 16.6214 211.345 15.2329 213.107 14.7349C214.452 14.3555 215.696 14.6585 216.94 15.0932C219.196 16.74 219.652 19.2036 220.045 21.6355C220.664 25.4007 221.289 29.1791 221.616 32.9785C221.9 36.2985 221.804 39.6552 221.556 42.9936V42.9883ZM245.721 46.5612C246.357 46.9722 247.465 47.3648 248.007 47.5782C250.856 48.7033 253.815 49.7045 256.835 50.3C257.441 50.4186 258.055 50.5187 258.641 50.7137C259.973 51.1537 261.143 52.1286 261.621 53.4039C262.442 55.5908 260.939 57.559 258.882 58.3521C257.512 58.8791 256.085 58.8606 254.618 58.8027C252.018 58.6973 249.459 58.3626 246.941 57.7487C243.702 56.9635 240.732 55.6066 237.935 53.865C236.462 52.9454 236.481 52.9349 236.067 54.5316C235.521 56.6632 234.394 58.2915 231.985 58.7421C226.802 59.7143 224.887 55.4511 225.067 51.2038C225.127 49.7941 225.187 48.3818 225.247 46.9722C225.394 43.51 225.542 40.0505 225.613 36.5856C225.697 32.3962 225.67 28.2042 225.853 24.0174C225.97 21.3615 225.422 15.5174 229.072 14.698C231.587 14.1289 234.091 13.4148 236.705 13.4148C239.542 13.4201 242.368 13.6493 245.151 14.171C251.889 15.4331 259.291 18.8663 261.926 25.4323C263.184 28.5652 263.165 32.1934 261.681 35.2313C260.693 37.2523 259.111 38.9596 257.332 40.3904C254.208 42.904 250.422 44.643 246.433 45.3966C244.903 45.6864 245.053 46.1317 245.71 46.5585L245.721 46.5612ZM302.424 56.8713C300.927 58.4575 298.968 58.9792 296.876 59.103C289.343 59.5457 281.724 60.0568 274.183 59.522C270.866 59.2875 265.947 60.6602 264.616 56.4814C264.441 55.936 264.512 55.3853 264.501 54.8425C264.75 53.6173 264.605 52.3947 264.586 51.159C264.428 41.057 263.958 30.8522 264.69 20.7687C264.889 18.0258 264.938 15.2908 267.879 14.0656C269.917 13.2277 272.094 13.0459 274.222 13.0354C282.444 12.988 290.677 12.7298 298.87 13.8074C300.695 14.2817 302.223 15.0906 302.763 17.0114C303.134 18.7741 302.4 20.0625 300.908 21.0216C300.575 21.2324 300.234 21.4327 299.901 21.6355C294.941 22.6131 289.914 22.5498 284.905 22.4023C281.65 22.3074 278.39 22.3601 275.135 22.2969C274.912 22.2916 274.683 22.289 274.478 22.3759C273.878 22.6341 273.875 23.443 273.96 24.0728C274.391 27.3742 274.456 30.7205 274.156 34.0351C274.121 34.4409 274.118 34.9283 274.47 35.1523C274.664 35.2735 274.909 35.2735 275.138 35.2682C280.916 35.1602 286.782 35.0205 292.472 36.1641C293.231 36.4223 293.989 36.6858 294.655 37.1416C296.747 38.5829 296.619 41.3284 294.363 42.5114C292.38 43.5548 290.211 43.9579 287.979 44.145C287.791 44.203 287.608 44.3084 287.415 44.3216C285.298 44.4507 283.189 44.5903 281.072 44.6852C279.187 44.7668 277.307 44.809 275.422 44.8248C274.639 44.8248 274.331 45.1225 274.355 45.8682C274.385 46.8405 274.374 47.818 274.35 48.7903C274.331 49.4042 274.579 49.6914 275.242 49.6518C276.249 49.5886 277.255 49.4938 278.262 49.499C285.622 49.5175 293.002 49.059 300.321 50.2658C301.006 50.8402 301.824 51.238 302.444 51.8994C303.742 53.2879 303.734 55.4775 302.424 56.8713ZM251.227 32.8046C251.251 32.7677 251.273 32.7309 251.297 32.694C252.288 31.1025 252.506 28.9973 251.543 27.39C250.828 26.1991 249.587 25.4086 248.381 24.6761C247.83 24.3415 247.276 24.0069 246.706 23.696C243.757 22.0808 240.478 21.1428 237.101 20.8899C235.663 20.7845 235.657 20.7898 235.657 22.1836C235.663 25.4692 235.676 28.7496 235.682 32.0326C235.567 33.6557 235.816 35.2656 235.87 36.8808C235.889 37.4894 236.241 37.7186 236.847 37.7371C240.186 37.8398 243.762 37.3445 246.87 36.1114C248.608 35.4211 250.231 34.3355 251.229 32.802L251.227 32.8046ZM135.662 24.4417C135.057 23.8435 134.238 23.6038 133.474 23.2876C130.934 22.2574 128.236 21.9043 125.525 21.5828C123.929 21.3958 123.656 21.5407 123.705 23.111C123.779 25.5404 123.934 27.9671 124.057 30.3911C124.046 32.0432 124.057 33.7005 124.002 35.3578C123.978 36.1298 124.36 36.3195 125.053 36.2537C126.158 36.1483 127.271 36.0903 128.37 35.9427C131.704 35.5027 134.767 34.4488 137.356 32.2829C140.243 29.8694 139.509 26.0226 135.665 24.4417H135.662ZM94.2771 24.1782C94.0834 23.7803 93.9798 23.2533 93.4341 23.09C93.4887 22.8897 93.4451 22.7448 93.2104 22.6974C92.4357 21.4906 92.0701 21.3457 91.519 22.1362C89.6994 24.7315 88.499 27.5929 87.7706 30.6388C87.0368 32.2197 86.8731 33.9534 86.3766 35.6002C86.1392 36.4012 86.4421 36.6304 87.2741 36.554C90.706 36.2379 94.1489 36.2273 97.589 36.2721C98.4429 36.2826 98.6202 36.0034 98.432 35.2234C97.4908 31.3871 95.9522 27.7616 94.2798 24.1782H94.2771ZM98.432 35.2208C97.4908 31.3845 95.9522 27.7589 94.2798 24.1755C94.0862 23.7777 93.9825 23.2507 93.4369 23.0873C93.4914 22.8871 93.4478 22.7422 93.2132 22.6947C92.4384 21.488 92.0728 21.3431 91.5218 22.1335C89.7021 24.7288 88.5018 27.5903 87.7734 30.6362C87.0395 32.2171 86.8758 33.9508 86.3793 35.5976C86.142 36.3986 86.4448 36.6278 87.2769 36.5514C90.7088 36.2352 94.1516 36.2247 97.5917 36.2695C98.4456 36.28 98.623 36.0007 98.4347 35.2208H98.432ZM135.662 24.4417C135.057 23.8435 134.238 23.6038 133.474 23.2876C130.934 22.2574 128.236 21.9043 125.525 21.5828C123.929 21.3958 123.656 21.5407 123.705 23.111C123.779 25.5404 123.934 27.9671 124.057 30.3911C124.046 32.0432 124.057 33.7005 124.002 35.3578C123.978 36.1298 124.36 36.3195 125.053 36.2537C126.158 36.1483 127.271 36.0903 128.37 35.9427C131.704 35.5027 134.767 34.4488 137.356 32.2829C140.243 29.8694 139.509 26.0226 135.665 24.4417H135.662ZM135.662 24.4417C135.057 23.8435 134.238 23.6038 133.474 23.2876C130.934 22.2574 128.236 21.9043 125.525 21.5828C123.929 21.3958 123.656 21.5407 123.705 23.111C123.779 25.5404 123.934 27.9671 124.057 30.3911C124.046 32.0432 124.057 33.7005 124.002 35.3578C123.978 36.1298 124.36 36.3195 125.053 36.2537C126.158 36.1483 127.271 36.0903 128.37 35.9427C131.704 35.5027 134.767 34.4488 137.356 32.2829C140.243 29.8694 139.509 26.0226 135.665 24.4417H135.662ZM98.432 35.2208C97.4908 31.3845 95.9522 27.7589 94.2798 24.1755C94.0862 23.7777 93.9825 23.2507 93.4369 23.0873C93.4914 22.8871 93.4478 22.7422 93.2132 22.6947C92.4384 21.488 92.0728 21.3431 91.5218 22.1335C89.7021 24.7288 88.5018 27.5903 87.7734 30.6362C87.0395 32.2171 86.8758 33.9508 86.3793 35.5976C86.142 36.3986 86.4448 36.6278 87.2769 36.5514C90.7088 36.2352 94.1516 36.2247 97.5917 36.2695C98.4456 36.28 98.623 36.0007 98.4347 35.2208H98.432ZM98.432 35.2208C97.4908 31.3845 95.9522 27.7589 94.2798 24.1755C94.0862 23.7777 93.9825 23.2507 93.4369 23.0873C93.4914 22.8871 93.4478 22.7422 93.2132 22.6947C92.4384 21.488 92.0728 21.3431 91.5218 22.1335C89.7021 24.7288 88.5018 27.5903 87.7734 30.6362C87.0395 32.2171 86.8758 33.9508 86.3793 35.5976C86.142 36.3986 86.4448 36.6278 87.2769 36.5514C90.7088 36.2352 94.1516 36.2247 97.5917 36.2695C98.4456 36.28 98.623 36.0007 98.4347 35.2208H98.432ZM135.662 24.4417C135.057 23.8435 134.238 23.6038 133.474 23.2876C130.934 22.2574 128.236 21.9043 125.525 21.5828C123.929 21.3958 123.656 21.5407 123.705 23.111C123.779 25.5404 123.934 27.9671 124.057 30.3911C124.046 32.0432 124.057 33.7005 124.002 35.3578C123.978 36.1298 124.36 36.3195 125.053 36.2537C126.158 36.1483 127.271 36.0903 128.37 35.9427C131.704 35.5027 134.767 34.4488 137.356 32.2829C140.243 29.8694 139.509 26.0226 135.665 24.4417H135.662ZM135.711 24.3573C132.558 22.5999 129.096 22.0071 125.525 21.5828C123.929 21.3958 123.656 21.5407 123.705 23.111C123.779 25.5404 123.934 27.9671 124.057 30.3911C124.046 32.0432 124.057 33.7005 124.002 35.3578C123.978 36.1298 124.36 36.3195 125.053 36.2537C126.158 36.1483 127.271 36.0903 128.37 35.9427C131.704 35.5027 134.767 34.4488 137.356 32.2829C138.614 31.229 139.359 29.6718 139.037 28.0567C138.715 26.4415 137.288 25.2505 135.842 24.4285C135.799 24.4048 135.758 24.381 135.714 24.3573H135.711ZM98.432 35.2208C97.5399 31.5188 96.0258 27.9987 94.4572 24.526C94.2744 24.1228 94.0889 23.7144 93.8161 23.3614C93.2923 22.6816 92.3484 20.9452 91.519 22.1335C89.6994 24.7288 88.499 27.5903 87.7706 30.6362C87.0368 32.2171 86.8731 33.9508 86.3766 35.5976C86.1392 36.3986 86.4421 36.6278 87.2741 36.5514C90.706 36.2352 94.1489 36.2247 97.589 36.2695C98.4429 36.28 98.6202 36.0007 98.432 35.2208Z" fill="#040404"/>
</svg>
