<svg width="39" height="39" viewBox="0 0 39 39" fill="none" xmlns="http://www.w3.org/2000/svg">
<g clip-path="url(#clip0_397_293)">
<path d="M19.5725 0.465332C9.07909 0.465332 0.57251 8.97191 0.57251 19.4653C0.57251 29.9587 9.07909 38.4653 19.5725 38.4653C30.0659 38.4653 38.5725 29.9587 38.5725 19.4653C38.5725 8.97191 30.0659 0.465332 19.5725 0.465332ZM29.1927 17.7124C27.1752 17.7124 25.2121 17.0577 23.7006 15.9497L23.6885 23.4829C23.6873 24.8788 23.2604 26.2411 22.4647 27.388C21.6691 28.5349 20.5426 29.412 19.2356 29.902C17.9286 30.3921 16.5032 30.4719 15.1497 30.1308C13.7961 29.7897 12.5788 29.0439 11.6601 27.993C10.7414 26.942 10.1651 25.6359 10.008 24.2489C9.85096 22.8619 10.1206 21.46 10.781 20.2302C11.4414 19.0005 12.4612 18.0014 13.7042 17.3662C14.9472 16.7311 16.3543 16.4901 17.7378 16.6755V20.375C17.0852 20.1822 16.3884 20.1997 15.7464 20.4252C15.1043 20.6506 14.5495 21.0725 14.1607 21.631C13.7718 22.1895 13.5687 22.8562 13.5801 23.5366C13.5915 24.217 13.8168 24.8766 14.2241 25.4217C14.6315 25.9669 15.2001 26.37 15.8493 26.5738C16.4986 26.7776 17.1956 26.7718 17.8414 26.5573C18.4872 26.3427 19.049 25.9303 19.4473 25.3785C19.8455 24.8266 20.0599 24.1634 20.06 23.4829V8.57989H23.8655C23.8655 9.27944 24.0033 9.97213 24.271 10.6184C24.5387 11.2647 24.9311 11.852 25.4258 12.3466C25.9204 12.8413 26.5077 13.2336 27.154 13.5013C27.8003 13.769 28.493 13.9068 29.1925 13.9068L29.1927 17.7124Z" fill="black"/>
</g>
<defs>
<clipPath id="clip0_397_293">
<rect width="38" height="38" fill="white" transform="translate(0.57251 0.465332)"/>
</clipPath>
</defs>
</svg>
