<svg width="39" height="39" viewBox="0 0 39 39" fill="none" xmlns="http://www.w3.org/2000/svg">
<g clip-path="url(#clip0_397_291)">
<path fill-rule="evenodd" clip-rule="evenodd" d="M19.5725 0.465332C30.0589 0.465332 38.5725 8.97897 38.5725 19.4653C38.5725 29.9517 30.0589 38.4653 19.5725 38.4653C9.08614 38.4653 0.57251 29.9517 0.57251 19.4653C0.57251 8.97897 9.08614 0.465332 19.5725 0.465332ZM30.9514 13.7489C30.6782 12.7269 29.8736 11.9223 28.8517 11.6492C26.9994 11.1528 19.5725 11.1528 19.5725 11.1528C19.5725 11.1528 12.1457 11.1528 10.2933 11.6492C9.27169 11.9223 8.46679 12.7269 8.19366 13.7489C7.69751 15.601 7.69751 19.4655 7.69751 19.4655C7.69751 19.4655 7.69751 23.3298 8.19366 25.1818C8.46679 26.2037 9.27169 27.0086 10.2933 27.2817C12.1457 27.7778 19.5725 27.7778 19.5725 27.7778C19.5725 27.7778 26.9994 27.7778 28.8517 27.2817C29.8736 27.0086 30.6782 26.2037 30.9514 25.1818C31.4475 23.3298 31.4475 19.4655 31.4475 19.4655C31.4475 19.4655 31.4475 15.601 30.9514 13.7489ZM17.1974 23.0281V15.9029L23.3678 19.4655L17.1974 23.0281Z" fill="black"/>
</g>
<defs>
<clipPath id="clip0_397_291">
<rect width="38" height="38" fill="white" transform="translate(0.57251 0.465332)"/>
</clipPath>
</defs>
</svg>
