<svg width="329" height="391" viewBox="0 0 329 391" fill="none" xmlns="http://www.w3.org/2000/svg">
<path d="M320.62 359.72C318.546 359.72 316.557 360.544 315.09 362.011C313.624 363.477 312.8 365.466 312.8 367.54V375.36H15.64V351.9H46.92C48.994 351.9 50.983 351.076 52.4496 349.61C53.9161 348.143 54.74 346.154 54.74 344.08C54.74 342.006 53.9161 340.017 52.4496 338.551C50.983 337.084 48.994 336.26 46.92 336.26H7.82C5.74601 336.26 3.75696 337.084 2.29043 338.551C0.823892 340.017 0 342.006 0 344.08V383.18C0 385.254 0.823892 387.243 2.29043 388.71C3.75696 390.176 5.74601 391 7.82 391H320.62C322.694 391 324.683 390.176 326.15 388.71C327.616 387.243 328.44 385.254 328.44 383.18V367.54C328.44 365.466 327.616 363.477 326.15 362.011C324.683 360.544 322.694 359.72 320.62 359.72Z" fill="black"/>
<path d="M320.62 0H7.82C5.74601 0 3.75696 0.823892 2.29043 2.29043C0.823892 3.75696 0 5.74601 0 7.82V320.62C0 322.694 0.823892 324.683 2.29043 326.15C3.75696 327.616 5.74601 328.44 7.82 328.44H31.28C33.354 328.44 35.343 327.616 36.8096 326.15C38.2761 324.683 39.1 322.694 39.1 320.62C39.1 318.546 38.2761 316.557 36.8096 315.09C35.343 313.624 33.354 312.8 31.28 312.8H15.64V15.64H312.8V328.44H277.61C275.536 328.44 273.547 329.264 272.08 330.73C270.614 332.197 269.79 334.186 269.79 336.26C269.79 338.334 270.614 340.323 272.08 341.79C273.547 343.256 275.536 344.08 277.61 344.08H316.71C317.376 344.037 318.034 343.905 318.665 343.689C319.296 343.905 319.954 344.037 320.62 344.08C322.694 344.08 324.683 343.256 326.15 341.79C327.616 340.323 328.44 338.334 328.44 336.26V7.82C328.44 5.74601 327.616 3.75696 326.15 2.29043C324.683 0.823892 322.694 0 320.62 0Z" fill="black"/>
<path d="M289.34 289.34C291.414 289.34 293.403 288.516 294.87 287.05C296.336 285.583 297.16 283.594 297.16 281.52V39.1C297.16 37.026 296.336 35.037 294.87 33.5705C293.403 32.1039 291.414 31.28 289.34 31.28H39.1C37.026 31.28 35.037 32.1039 33.5705 33.5705C32.1039 35.037 31.28 37.026 31.28 39.1V281.52C31.28 283.594 32.1039 285.583 33.5705 287.05C35.037 288.516 37.026 289.34 39.1 289.34H289.34Z" fill="black"/>
</svg>
