<svg width="38" height="38" viewBox="0 0 38 38" fill="none" xmlns="http://www.w3.org/2000/svg">
<g clip-path="url(#clip0_4003_49)">
<path d="M19 0C8.50658 0 0 8.50658 0 19C0 29.4934 8.50658 38 19 38C29.4934 38 38 29.4934 38 19C38 8.50658 29.4934 0 19 0ZM28.6202 17.2471C26.6027 17.2471 24.6396 16.5923 23.128 15.4844L23.116 23.0176C23.1148 24.4135 22.6878 25.7758 21.8922 26.9227C21.0966 28.0696 19.9701 28.9466 18.6631 29.4367C17.3561 29.9268 15.9307 30.0066 14.5772 29.6655C13.2236 29.3244 12.0063 28.5786 11.0876 27.5277C10.1689 26.4767 9.59259 25.1706 9.43552 23.7836C9.27845 22.3966 9.54811 20.9947 10.2085 19.7649C10.8689 18.5351 11.8887 17.536 13.1317 16.9009C14.3747 16.2658 15.7818 16.0248 17.1653 16.2102V19.9096C16.5127 19.7168 15.8159 19.7344 15.1738 19.9598C14.5318 20.1853 13.977 20.6072 13.5881 21.1657C13.1993 21.7241 12.9962 22.3909 13.0076 23.0713C13.019 23.7517 13.2443 24.4113 13.6516 24.9564C14.0589 25.5016 14.6276 25.9046 15.2768 26.1084C15.9261 26.3123 16.6231 26.3065 17.2689 26.0919C17.9147 25.8774 18.4765 25.465 18.8747 24.9131C19.273 24.3613 19.4873 23.6981 19.4875 23.0176V8.11456H23.293C23.293 8.8141 23.4308 9.5068 23.6985 10.1531C23.9662 10.7994 24.3586 11.3866 24.8533 11.8813C25.3479 12.3759 25.9352 12.7683 26.5815 13.036C27.2278 13.3037 27.9205 13.4415 28.62 13.4415L28.6202 17.2471Z" fill="black"/>
</g>
<defs>
<clipPath id="clip0_4003_49">
<rect width="38" height="38" fill="white"/>
</clipPath>
</defs>
</svg>
