<svg width="161" height="167" viewBox="0 0 161 167" fill="none" xmlns="http://www.w3.org/2000/svg">
<path d="M95.8009 56.8106C95.823 57.8436 93.2294 58.1356 90.6383 60.209C88.111 62.2235 86.8228 64.2797 86.5161 65.006C84.3151 70.1612 85.9738 70.1489 83.6747 71.842C83.1472 72.2272 82.2 72.6174 80.4211 72.2616C80.4211 72.2616 44.2093 63.1044 32.6499 60.5451C30.898 60.1575 29.2418 61.4996 29.254 63.2957C29.3178 72.3057 29.5387 81.3133 29.6859 90.3208C29.7816 96.2048 29.7521 102.099 29.9165 107.983C30.0711 113.602 29.4749 118.904 31.0526 124.447C32.2206 128.55 34.132 132.394 35.6336 136.387C36.8311 139.567 37.7708 142.842 38.4431 146.172C38.8259 148.069 39.0934 150.149 38.161 151.845C37.128 153.72 34.8288 154.608 32.6868 154.559C26.3979 154.414 19.1349 150.581 13.2387 148.491C11.6929 147.944 9.07231 146.376 7.84055 144.737C6.25301 142.656 5.35495 140.099 5.34759 137.407L6.03953 19.7719C6.03953 17.1784 5.39912 14.6216 4.17963 12.3372L0.432819 5.32944C-0.848014 2.9518 0.867126 0.0588877 3.5662 0.0294432L6.03708 0H20.1729C25.5121 0 29.838 4.32833 29.838 9.66514V34.1752C29.838 35.5787 31.1924 36.5823 32.5322 36.1701C41.5593 33.3974 62.5729 26.949 68.9868 24.9394C74.2059 23.2979 90.5868 28.4139 94.5471 29.7021C95.2685 29.9352 96.3554 31.3657 95.1237 31.773C86.4474 34.6414 47.9537 48.6569 47.9537 48.6569C46.6238 49.1182 46.4888 47.7712 47.8825 47.9503C61.3804 49.663 83.9569 52.5412 92.4614 54.8427C93.0945 55.0145 95.7813 55.7555 95.7936 56.8082L95.8009 56.8106Z" fill="#E55A94"/>
<path d="M155.622 44.9543C155.566 48.6348 155.495 55.3359 155.416 60.0445C155.352 63.8969 151.35 66.6769 148.614 63.9631C144.747 60.1231 135.499 56.5456 130.489 56.5456C117.048 56.5456 96.8437 73.7141 98.7503 103.902C100.772 135.945 120.174 137.763 132.862 131.639C145.712 125.436 146.195 117.051 150.55 109.303C151.419 107.757 155.289 106.456 157.001 106.92C160.839 107.956 160.093 120.896 160.059 122.953C160.059 125.755 159.646 127.696 157.313 130.13C154.665 132.893 150.72 134.959 147.604 137.135C143.194 140.217 138.76 143.267 134.307 146.285C129.061 149.84 123.783 153.352 118.476 156.816C113.742 159.908 108.906 163.979 103.41 165.551C93.6809 168.336 83.157 165.399 73.5753 163.387C71.4504 162.923 69.1831 162.315 67.7993 160.637C66.2583 158.769 66.251 156.014 67.0631 153.734C67.8753 151.455 69.3794 149.499 70.6995 147.47C77.4914 137.042 77.538 126.589 77.6018 114.684C77.6631 103.124 77.4816 91.5697 77.7588 80.0103C77.8398 79.1466 77.9208 78.2878 78.0018 77.4241L78.1465 76.5261C78.2226 76.0599 78.2815 75.5863 78.3232 75.1152C78.5661 72.2787 78.7624 71.4984 79.869 68.5172C80.2444 67.5063 81.8075 63.887 84.8697 60.8616C86.0303 59.7133 87.6644 58.4079 93.3399 55.9199C98.2914 53.7508 99.4741 53.6821 108.128 50.5364C112.717 48.8679 116.726 47.3 119.128 46.375C120.942 45.6757 123.012 44.8586 126.013 43.6513C130.84 41.7105 135.664 39.75 140.444 37.7085C144.858 35.748 152.668 31.7926 154.974 38.2213L155.021 38.3489C155.671 40.3536 155.644 42.7631 155.625 44.9518L155.622 44.9543Z" fill="#3E9DA2"/>
</svg>
