<?xml version="1.0" encoding="UTF-8"?>
<svg id="Layer_1" xmlns="http://www.w3.org/2000/svg" version="1.1" viewBox="0 0 400 106">
  <!-- Generator: Adobe Illustrator 29.3.0, SVG Export Plug-In . SVG Version: 2.1.0 Build 146)  -->
  <defs>
    <style>
      .st0 {
        fill: #1271ea;
      }

      .st1 {
        fill: #fff;
      }
    </style>
  </defs>
  <rect class="st0" x="4.4" y="19.7" width="391.2" height="66.6" rx="33.3" ry="33.3"/>
  <g>
    <g>
      <path class="st1" d="M146.1,62v-16.2h5.9c1.1,0,2,.2,2.9.6s1.5,1,1.9,1.7c.5.8.7,1.7.7,2.7s-.3,2.1-.8,2.9c-.6.8-1.3,1.4-2.3,1.7l3.7,6.5h-2.9l-4-7.1,1.7,1h-4.3v6.1h-2.6ZM148.7,53.6h3.4c.6,0,1.1-.1,1.5-.3.4-.2.8-.6,1-1,.2-.4.4-.9.4-1.5s-.1-1.1-.4-1.5c-.2-.4-.6-.7-1-1-.4-.2-1-.3-1.5-.3h-3.4v5.6Z"/>
      <path class="st1" d="M165,62.3c-1.2,0-2.2-.3-3.1-.8-.9-.5-1.6-1.3-2.1-2.2-.5-.9-.8-2-.8-3.1s.3-2.2.8-3.2c.5-.9,1.2-1.6,2.1-2.2.9-.5,1.9-.8,3-.8s1.7.2,2.4.5c.7.3,1.3.7,1.8,1.3.5.5.8,1.1,1.1,1.8s.4,1.4.4,2.2,0,.4,0,.6c0,.2,0,.4,0,.6h-9.4v-2h8l-1.2.9c.1-.7,0-1.3-.1-1.9-.2-.6-.6-1-1.1-1.3s-1.1-.5-1.7-.5-1.2.2-1.7.5c-.5.3-.9.8-1.2,1.4-.3.6-.4,1.3-.3,2.2,0,.8,0,1.5.3,2.1s.7,1.1,1.3,1.4c.5.3,1.2.5,1.9.5s1.3-.2,1.8-.5.9-.7,1.2-1.2l2,1c-.2.6-.6,1-1.1,1.5-.5.4-1.1.8-1.7,1-.7.3-1.4.4-2.2.4Z"/>
      <path class="st1" d="M177.2,62.3c-1.2,0-2.3-.3-3.2-.9s-1.5-1.4-1.9-2.4l1.9-.9c.3.7.8,1.2,1.3,1.6.6.4,1.2.6,1.9.6s1.1-.1,1.4-.4c.4-.3.5-.6.5-1.1s0-.5-.2-.7c-.2-.2-.4-.3-.6-.4-.2-.1-.5-.2-.7-.3l-1.9-.5c-1-.3-1.8-.7-2.3-1.3-.5-.6-.8-1.3-.8-2.1s.2-1.3.5-1.9c.4-.5.9-.9,1.5-1.2.6-.3,1.4-.4,2.2-.4s2,.3,2.9.8c.8.5,1.4,1.3,1.8,2.2l-1.9.9c-.2-.6-.6-1-1.1-1.4-.5-.3-1.1-.5-1.7-.5s-1,.1-1.3.4c-.3.3-.5.6-.5,1s0,.5.2.7.3.3.6.4c.2.1.5.2.7.3l1.9.6c1,.3,1.7.7,2.2,1.3s.8,1.3.8,2.1-.2,1.3-.6,1.8c-.4.5-.9.9-1.5,1.2-.7.3-1.4.4-2.3.4Z"/>
      <path class="st1" d="M189.5,62.3c-1.2,0-2.2-.3-3.1-.8-.9-.5-1.6-1.3-2.1-2.2-.5-.9-.8-2-.8-3.1s.3-2.2.8-3.2c.5-.9,1.2-1.6,2.1-2.2.9-.5,1.9-.8,3-.8s1.7.2,2.4.5c.7.3,1.3.7,1.8,1.3.5.5.8,1.1,1.1,1.8s.4,1.4.4,2.2,0,.4,0,.6c0,.2,0,.4,0,.6h-9.4v-2h8l-1.2.9c.1-.7,0-1.3-.1-1.9-.2-.6-.6-1-1.1-1.3s-1.1-.5-1.7-.5-1.2.2-1.7.5c-.5.3-.9.8-1.2,1.4-.3.6-.4,1.3-.3,2.2,0,.8,0,1.5.3,2.1s.7,1.1,1.3,1.4c.5.3,1.2.5,1.9.5s1.3-.2,1.8-.5.9-.7,1.2-1.2l2,1c-.2.6-.6,1-1.1,1.5-.5.4-1.1.8-1.7,1-.7.3-1.4.4-2.2.4Z"/>
      <path class="st1" d="M197.3,62v-11.8h2.4v2.4l-.2-.3c.3-.8.7-1.3,1.3-1.7s1.3-.5,2.1-.5h.7v2.2h-1c-.8,0-1.5.3-2,.8s-.8,1.2-.8,2.1v6.8h-2.5Z"/>
      <path class="st1" d="M208.6,62l-4.6-11.8h2.7l3.5,9.6h-1l3.5-9.6h2.7l-4.6,11.8h-2.2Z"/>
      <path class="st1" d="M222.5,62.3c-1.2,0-2.2-.3-3.1-.8-.9-.5-1.6-1.3-2.1-2.2-.5-.9-.8-2-.8-3.1s.3-2.2.8-3.2,1.2-1.6,2.1-2.2c.9-.5,1.9-.8,3-.8s1.7.2,2.4.5,1.3.7,1.8,1.3c.5.5.8,1.1,1.1,1.8s.4,1.4.4,2.2,0,.4,0,.6c0,.2,0,.4,0,.6h-9.4v-2h8l-1.2.9c.1-.7,0-1.3-.1-1.9-.2-.6-.6-1-1.1-1.3-.5-.3-1.1-.5-1.7-.5s-1.2.2-1.7.5-.9.8-1.2,1.4c-.3.6-.4,1.3-.3,2.2,0,.8,0,1.5.3,2.1.3.6.7,1.1,1.3,1.4.5.3,1.2.5,1.9.5s1.3-.2,1.8-.5c.5-.3.9-.7,1.2-1.2l2,1c-.2.6-.6,1-1.1,1.5-.5.4-1.1.8-1.7,1-.7.3-1.4.4-2.2.4Z"/>
      <path class="st1" d="M234.4,62v-16.2h5.9c1.1,0,2.1.2,2.9.6.8.4,1.5,1,1.9,1.7.5.8.7,1.7.7,2.7s-.2,1.9-.7,2.7c-.5.8-1.1,1.3-1.9,1.7-.8.4-1.8.6-2.9.6h-3.3v6.1h-2.6ZM236.9,53.6h3.4c.6,0,1.1-.1,1.5-.3.4-.2.8-.6,1-1s.4-.9.4-1.5-.1-1.1-.4-1.5c-.2-.4-.6-.7-1-1-.4-.2-.9-.3-1.5-.3h-3.4v5.6Z"/>
      <path class="st1" d="M251,62.3c-.8,0-1.5-.1-2.1-.4s-1.1-.7-1.4-1.2c-.3-.5-.5-1.1-.5-1.8s.1-1.2.4-1.7c.3-.5.7-.9,1.3-1.3.6-.3,1.3-.6,2.2-.7l4.1-.7v1.9l-3.6.6c-.7.1-1.1.3-1.4.6-.3.3-.5.7-.5,1.1s.2.8.5,1.1.8.4,1.3.4,1.3-.1,1.8-.4c.5-.3.9-.7,1.2-1.2.3-.5.4-1,.4-1.6v-3c0-.6-.2-1.1-.6-1.4s-1-.6-1.7-.6-1.2.2-1.7.5-.8.8-1.1,1.3l-2-1c.2-.6.6-1.1,1.1-1.5.5-.4,1.1-.8,1.7-1,.7-.2,1.4-.4,2.1-.4s1.8.2,2.5.5c.7.3,1.3.8,1.7,1.4s.6,1.3.6,2.1v7.9h-2.4v-2.1h.5c-.3.5-.6,1-1.1,1.3-.4.3-.9.6-1.5.8-.5.2-1.2.3-1.8.3Z"/>
      <path class="st1" d="M260,62v-11.8h2.4v2.4l-.2-.3c.3-.8.7-1.3,1.3-1.7s1.3-.5,2.1-.5h.7v2.2h-1c-.8,0-1.5.3-2,.8s-.8,1.2-.8,2.1v6.8h-2.5Z"/>
      <path class="st1" d="M267.9,62v-16.5h2.5v11l-1-.2,5.9-6.1h3.1l-4.4,4.7,4.6,7.1h-2.8l-4.1-6.2,1.5-.2-3.5,3.7.8-1.6v4.4h-2.5Z"/>
      <path class="st1" d="M280.3,48.6v-2.8h2.5v2.8h-2.5ZM280.3,62v-11.8h2.5v11.8h-2.5Z"/>
      <path class="st1" d="M285.6,62v-11.8h2.4v2.3l-.3-.3c.3-.7.8-1.3,1.4-1.7s1.4-.6,2.2-.6,1.6.2,2.3.6c.7.4,1.2.9,1.6,1.6.4.7.6,1.4.6,2.3v7.6h-2.4v-6.9c0-.6-.1-1.1-.3-1.5-.2-.4-.5-.7-.9-1s-.9-.3-1.4-.3-1,.1-1.4.3-.7.5-.9,1c-.2.4-.3.9-.3,1.5v6.9h-2.5Z"/>
      <path class="st1" d="M304,66.8c-.9,0-1.6-.1-2.4-.4s-1.4-.7-1.9-1.1c-.5-.5-.9-1.1-1.2-1.7l2.3-.9c.2.6.6,1,1.1,1.4.5.4,1.2.5,2,.5s1.2-.1,1.7-.4c.5-.2.9-.6,1.2-1,.3-.5.4-1,.4-1.6v-2.7l.4.5c-.4.8-1,1.3-1.7,1.7-.7.4-1.5.6-2.4.6s-2.1-.3-2.9-.8-1.6-1.2-2.1-2.1c-.5-.9-.8-1.9-.8-3s.3-2.1.8-3c.5-.9,1.2-1.6,2-2.1.9-.5,1.8-.8,2.9-.8s1.7.2,2.4.6c.7.4,1.3.9,1.7,1.7l-.3.6v-2.6h2.3v11.2c0,1-.2,1.9-.7,2.7-.5.8-1.2,1.4-2,1.9s-1.8.7-3,.7ZM303.9,59.3c.7,0,1.2-.2,1.7-.5.5-.3.9-.7,1.2-1.3s.4-1.1.4-1.8-.2-1.3-.5-1.8c-.3-.5-.7-1-1.2-1.3s-1.1-.5-1.7-.5-1.3.2-1.8.5c-.5.3-.9.7-1.2,1.3-.3.5-.4,1.1-.4,1.8s.1,1.2.4,1.8.7,1,1.2,1.3c.5.3,1.1.5,1.8.5Z"/>
      <path class="st1" d="M316.7,62v-16.2h2.1l9.1,12.6-1,.2v-12.7h2.5v16.2h-2.1l-9-12.7.9-.2v12.8h-2.6Z"/>
      <path class="st1" d="M338.2,62.3c-1.1,0-2.2-.3-3.1-.8-.9-.5-1.7-1.3-2.2-2.2-.6-.9-.8-2-.8-3.2s.3-2.2.8-3.2c.6-.9,1.3-1.6,2.2-2.2.9-.5,2-.8,3.1-.8s2.2.3,3.1.8c.9.5,1.7,1.3,2.2,2.2.5.9.8,2,.8,3.2s-.3,2.3-.8,3.2c-.6.9-1.3,1.7-2.2,2.2-.9.5-2,.8-3.1.8ZM338.2,60c.7,0,1.3-.2,1.9-.5.5-.3,1-.8,1.3-1.4s.5-1.3.5-2-.2-1.4-.5-2-.7-1-1.3-1.4c-.5-.3-1.2-.5-1.9-.5s-1.3.2-1.8.5c-.5.3-1,.8-1.3,1.4s-.5,1.2-.5,2,.2,1.4.5,2,.7,1,1.3,1.4c.5.3,1.2.5,1.8.5Z"/>
      <path class="st1" d="M349.4,62l-4-11.8h2.6l3.1,9.4h-.9l3.2-9.4h2.2l3.1,9.4h-.9l3.1-9.4h2.6l-4.1,11.8h-2.2l-3.2-9.6h.8l-3.2,9.6h-2.2Z"/>
    </g>
    <g id="SH_Logo-White">
      <path class="st1" d="M55.9,36.1l-.7-.2c-.5-.1-1.2-.4-1.2-1s.7-.9,1.1-.9,1.3.3,1.8.7l1.1-2.1c-.9-.5-2.2-.8-3.2-.8-2.1,0-3.5,1.4-3.5,3.4s1.1,2.4,2.8,2.9c.6.2,1.8.4,1.8,1.2s-.8,1-1.5,1c-.9,0-1.7-.5-2.4-1.1l-1.1,2.2c1,.7,2.3,1.2,3.6,1.2s2.1-.3,2.9-1c.8-.7,1.1-1.7,1.1-2.8s-1.1-2.4-2.5-2.8ZM65.5,39h1.6c1.9,0,3.6-1.1,3.6-3.5s-1.8-3.4-3.7-3.4h-4.1v10.3h2.6v-3.4ZM65.5,34.3h.9c1,0,1.8,0,1.8,1.2s-.7,1.2-1.6,1.2h-1.1v-2.4ZM80,42.7c3.3,0,5.7-2.3,5.7-5.7s-2.7-5.3-5.7-5.3-5.7,2.2-5.7,5.3,2.4,5.7,5.7,5.7ZM80,34.4c1.6,0,2.9,1.3,2.9,2.7s-1.3,3.1-2.9,3.1-2.9-1.3-2.9-3.1,1.3-2.7,2.9-2.7ZM91.5,42.4h2.6v-8h2.4l-.2-2.2h-7.1l-.2,2.2h2.5v8ZM89.3,54.7c0-6.8-5.8-7.3-7.1-7.3h-7.4s0,24.6,0,24.6c1.4,0,2.8,0,4.1,0v-9.5h2l4,9.7c1.5,0,3,.1,4.5.2l-1-2.3-3.5-8.3c2.1-.8,4.5-2.7,4.5-7.2ZM82.1,58.6h-3.4v-7.7h3.2c1.5,0,3.3.7,3.3,3.8s-3.1,3.8-3.1,3.8ZM64.2,61.6c1.9,0,3.7-.1,5.8-.1v-3.7s-3.6,0-5.8.1v-6.8h7.1v-3.6h-11.4v24.9c3.7-.2,7.5-.3,11.4-.3v-3.8s-3.7,0-7.1.1v-6.7ZM51.8,57.9s-5.1.4-7.5.6v-11h-4.3v26.8c1.4-.2,2.8-.4,4.3-.6v-11.2s7.5-.6,7.5-.6v11.1c1.4-.1,2.8-.2,4.3-.3v-25.1h-4.3s0,10.5,0,10.5ZM99.6,47.3c-7.2,0-8.3,5-8.3,12.7s.6,13.6,8.4,14c6.8.4,8.1-3.7,8.1-14s-1-12.7-8.1-12.7ZM103.5,60.1c0,7.5-.3,10-3.8,9.7-3.8-.3-4.1-2.9-4.1-9.7s-.3-8.7,4-8.7,3.9,4,3.9,8.7Z"/>
    </g>
    <rect class="st1" x="125.8" y="27.6" width="2.2" height="50.7" rx="1.1" ry="1.1"/>
  </g>
</svg>